<?xml version="1.0" encoding="UTF-8"?>
<svg width="160px" height="46px" viewBox="0 0 160 46" version="1.1" xmlns="http://www.w3.org/2000/svg" xmlns:xlink="http://www.w3.org/1999/xlink">
    <!-- Generator: Sketch 58 (84663) - https://sketch.com -->
    <title>dependabot-logo</title>
    <desc>Created with Sketch.</desc>
    <g id="Page-2" stroke="none" stroke-width="1" fill="none" fill-rule="evenodd">
        <g id="Group-8" transform="translate(-1294.000000, -48.000000)" fill="#FFFFFF" fill-rule="nonzero">
            <g id="Group-5-Copy" transform="translate(1246.000000, 0.000000)">
                <g id="dependabot" transform="translate(48.000000, 48.000000)">
                    <path d="M23.4314286,0.847801088 L41.2071429,12.5111422 C42.2366828,13.1866724 42.8571429,14.3357534 42.8571429,15.5678011 L42.8571429,30.6809635 C42.8571429,31.9133489 42.2371429,33.0628127 41.2071429,33.7376224 L23.4314286,45.4009635 C22.2152363,46.1989652 20.6419065,46.1989652 19.4257143,45.4009635 L1.65,33.7376224 C0.620460013,33.0620921 -6.71462885e-13,31.9130112 -6.71462885e-13,30.6809635 L-6.71462885e-13,15.5678011 C-6.71462885e-13,14.3354157 0.62,13.1859518 1.65,12.5111422 L19.4257143,0.847801088 C20.6419065,0.0497993928 22.2152363,0.0497993928 23.4314286,0.847801088 Z M81.6757143,19.562331 C84.3171429,19.562331 85.9957143,21.6153535 85.9957143,24.9465113 C85.9957143,28.2676612 84.3271429,30.3206838 81.7157143,30.3206838 C80.2042857,30.3206838 79.0257143,29.5944056 78.4557143,28.4249262 L78.4557143,28.4249262 L78.4057143,28.4249262 L78.4057143,33.5832168 L75.9628571,33.5832168 L75.9628571,19.7396115 L78.3485714,19.7396115 L78.3485714,21.5381507 L78.3971429,21.5381507 C78.9857143,20.3286402 80.1642857,19.562331 81.6757143,19.562331 Z M23.81,10.2579643 L20.4757143,10.2579643 C20.2433333,10.2579643 20.0482011,10.4262784 20.0077072,10.6484379 L20,10.7340482 L20,14.0709246 C20,14.3046436 20.1682841,14.4990273 20.390204,14.5393382 L20.4757143,14.5470085 L22.8571429,14.5470085 L22.8571429,15.97669 L11.4285714,15.97669 C10.6860037,15.97669 10.0757632,16.5436903 10.0065396,17.2686835 L10,17.4063714 L10,23.1250971 L9.04714286,23.1250971 C8.8147619,23.1250971 8.61962963,23.2934112 8.5791358,23.5155708 L8.57142857,23.601181 L8.57142857,28.3677389 C8.57142857,28.6014579 8.73971265,28.7958416 8.96163261,28.8361525 L9.04714286,28.8438228 L10,28.8438228 L10,31.7031857 C10,32.4463304 10.5665601,33.0570451 11.2909905,33.1263225 L11.4285714,33.1328671 L31.4285714,33.1328671 C32.1711392,33.1328671 32.7813797,32.5658668 32.8506033,31.8408736 L32.8571429,31.7031857 L32.8571429,28.8438228 L33.81,28.8438228 C34.042381,28.8438228 34.2375132,28.6755087 34.2780071,28.4533492 L34.2857143,28.3677389 L34.2857143,23.601181 C34.2857143,23.3686195 34.1175309,23.1733356 33.8955438,23.1328103 L33.81,23.1250971 L32.8571429,23.1250971 L32.8571429,17.4063714 C32.8571429,16.6632267 32.2905828,16.052512 31.5661524,15.9832347 L31.4285714,15.97669 L24.2857143,15.97669 L24.2857143,10.7340482 C24.2857143,10.4724165 24.0728571,10.2579643 23.81,10.2579643 Z M148.307143,19.5237296 C151.341429,19.5237296 153.344286,21.5767521 153.344286,24.9465113 C153.344286,28.3262782 151.36,30.3592852 148.307143,30.3592852 L148.307143,30.3592852 C145.254286,30.3607148 143.271429,28.3262782 143.271429,24.9465113 C143.271429,21.5867599 145.274286,19.5237296 148.307143,19.5237296 Z M69.5814286,19.5222999 C72.5357143,19.5222999 74.3814286,21.5767521 74.3814286,24.7406371 L74.3814286,24.7406371 L74.3814286,25.5369697 L67.1071429,25.5369697 L67.1071429,25.6842269 C67.1071429,27.3540948 68.1285714,28.4735354 69.7285714,28.4735354 C70.8671429,28.4735354 71.7314286,27.9045221 71.9957143,27.0395649 L71.9957143,27.0395649 L74.2842857,27.0395649 C73.97,29.0053768 72.1428571,30.3607148 69.68,30.3607148 C66.5585714,30.3607148 64.6728571,28.3076923 64.6728571,24.9865423 C64.6728571,21.6954157 66.5771429,19.5222999 69.5814286,19.5222999 Z M92.0442857,19.5222999 C94.9985714,19.5222999 96.8442857,21.5767521 96.8442857,24.7406371 L96.8442857,24.7406371 L96.8442857,25.5369697 L89.57,25.5369697 L89.57,25.6842269 C89.57,27.3540948 90.5914286,28.4735354 92.1914286,28.4735354 C93.33,28.4735354 94.1928571,27.9045221 94.4585714,27.0395649 L94.4585714,27.0395649 L96.7457143,27.0395649 C96.4314286,29.0053768 94.6057143,30.3607148 92.1414286,30.3607148 C89.02,30.3607148 87.1342857,28.3076923 87.1342857,24.9865423 C87.1342857,21.6954157 89.04,19.5222999 92.0442857,19.5222999 Z M119.267143,15.97669 L119.267143,30.1548407 L116.871429,30.1548407 L116.871429,28.376317 L116.832857,28.376317 C116.262857,29.5457964 115.065714,30.3221134 113.542857,30.3221134 L113.542857,30.3221134 C110.922857,30.3206838 109.224286,28.2476457 109.224286,24.9379332 C109.224286,21.6453768 110.922857,19.562331 113.544286,19.562331 C115.035714,19.562331 116.214286,20.338648 116.764286,21.4881119 L116.764286,21.4881119 L116.822857,21.4881119 L116.822857,15.97669 L119.267143,15.97669 Z M125.767143,19.5222999 C128.348571,19.5222999 130.028571,20.8890754 130.028571,22.982129 L130.028571,22.982129 L130.028571,30.1548407 L127.671429,30.1548407 L127.671429,28.4935509 L127.621429,28.4935509 C127.024286,29.6244289 125.717143,30.3221134 124.381429,30.3221134 C122.37,30.3221134 120.905714,29.053986 120.905714,27.1768143 C120.905714,25.3296659 122.33,24.2202331 124.862857,24.0629681 L124.862857,24.0629681 L127.611429,23.9057032 L127.611429,23.1594095 C127.611429,22.0685625 126.875714,21.4395027 125.668571,21.4395027 C124.51,21.4395027 123.772857,21.9999378 123.615714,22.8634654 L123.615714,22.8634654 L121.348571,22.8634654 C121.457143,20.9190987 123.115714,19.5222999 125.767143,19.5222999 Z M134.514286,15.97669 L134.514286,21.528143 L134.572857,21.528143 C135.161429,20.3100544 136.35,19.562331 137.822857,19.562331 C140.444286,19.562331 142.112857,21.6153535 142.112857,24.9465113 C142.112857,28.277669 140.452857,30.3221134 137.822857,30.3221134 L137.822857,30.3221134 C136.291429,30.3206838 135.122857,29.5843978 134.514286,28.376317 L134.514286,28.376317 L134.464286,28.376317 L134.464286,30.1548407 L132.068571,30.1548407 L132.068571,15.97669 L134.514286,15.97669 Z M158.037143,17.3034343 L158.037143,19.7396115 L160,19.7396115 L160,21.6253613 L158.037143,21.6253613 L158.037143,27.0395649 C158.037143,27.8945144 158.428571,28.2876768 159.292857,28.2876768 C159.518571,28.2876768 159.832857,28.2676612 159.99,28.2376379 L159.99,28.2376379 L159.99,30.1048019 C159.572156,30.1776185 159.148357,30.2106488 158.724286,30.2034499 C156.475714,30.2034499 155.591429,29.4071173 155.591429,27.3841181 L155.591429,27.3841181 L155.591429,21.626791 L154.1,21.626791 L154.1,19.7396115 L155.591429,19.7396115 L155.591429,17.3034343 L158.037143,17.3034343 Z M104.09,19.5437451 C106.387143,19.5437451 107.691429,21.016317 107.691429,23.4239005 L107.691429,23.4239005 L107.691429,30.1548407 L105.248571,30.1548407 L105.248571,23.915711 C105.248571,22.4417094 104.56,21.6167832 103.167143,21.6167832 C101.762857,21.6167832 100.87,22.6289977 100.87,24.1215851 L100.87,24.1215851 L100.87,30.1548407 L98.4242857,30.1548407 L98.4242857,19.7410412 L100.771429,19.7410412 L100.771429,21.528143 L100.82,21.528143 C101.38,20.2900389 102.49,19.5437451 104.09,19.5437451 Z M56.6028571,15.97669 C60.8342857,15.97669 63.3371429,18.5415385 63.3371429,23.0307382 C63.3371429,27.5213675 60.8428571,30.1548407 56.6028571,30.1548407 L56.6028571,30.1548407 L51.4285714,30.1548407 L51.4285714,15.97669 Z M127.612857,25.4969386 L125.207143,25.6441958 C124.028571,25.7228283 123.351429,26.2532401 123.351429,27.079596 C123.351429,27.9331158 124.058571,28.4735354 125.118571,28.4735354 C126.502857,28.4735354 127.612857,27.5513908 127.612857,26.2932712 L127.612857,26.2932712 L127.612857,25.4969386 Z M148.307143,21.469526 C146.765714,21.469526 145.754286,22.7362238 145.754286,24.9465113 C145.754286,27.1668065 146.755714,28.4249262 148.307143,28.4249262 C149.858571,28.4249262 150.86,27.1668065 150.86,24.9465113 C150.86,22.7362238 149.858571,21.469526 148.307143,21.469526 Z M80.93,21.5767521 C79.4085714,21.5767521 78.3971429,22.923512 78.3871429,24.9465113 C78.3971429,26.9909557 79.4085714,28.3162704 80.93,28.3162704 C82.51,28.3162704 83.4928571,27.0109713 83.4928571,24.9465113 C83.4928571,22.8934887 82.51,21.5767521 80.93,21.5767521 Z M114.28,21.5767521 C112.71,21.5767521 111.727143,22.883481 111.727143,24.9465113 C111.727143,27.0195493 112.7,28.3162704 114.28,28.3162704 C115.821429,28.3162704 116.832857,27.0109713 116.832857,24.9465113 C116.832857,22.9034965 115.821429,21.5767521 114.28,21.5767521 Z M137.065714,21.5767521 C135.554286,21.5767521 134.504286,22.923512 134.504286,24.9465113 C134.504286,26.9909557 135.554286,28.3162704 137.065714,28.3162704 C138.637143,28.3162704 139.608571,27.0195493 139.608571,24.9465113 C139.608571,22.883481 138.627143,21.5767521 137.065714,21.5767521 Z M56.3371429,18.1183528 L53.9614286,18.1183528 L53.9614286,28.0131779 L56.3371429,28.0131779 C59.1842857,28.0131779 60.7557143,26.2732556 60.7557143,23.0407459 C60.7557143,19.8668531 59.1657143,18.1183528 56.3371429,18.1183528 L56.3371429,18.1183528 Z M28.0942857,22.6489104 C28.216457,22.6489104 28.3346239,22.6877728 28.4322852,22.7586561 L28.5014286,22.8177156 L29.1157143,23.4324786 C29.2237131,23.5405341 29.2843885,23.6871051 29.2843885,23.8399378 C29.2843885,23.9622041 29.2455562,24.0804627 29.1747279,24.1781999 L29.1157143,24.247397 L26.12,27.2440093 C26.0120285,27.352092 25.8655712,27.4128146 25.7128571,27.4128146 C25.5906859,27.4128146 25.472519,27.3739522 25.3748577,27.3030688 L25.3057143,27.2440093 L23.5014286,25.4383217 C23.3934298,25.3302662 23.3327544,25.1836952 23.3327544,25.0308625 C23.3327544,24.9085963 23.3715866,24.7903376 23.4424149,24.6926004 L23.5014286,24.6234033 L24.1157143,24.0086402 C24.2236858,23.9005575 24.370143,23.839835 24.5228571,23.839835 C24.6450284,23.839835 24.7631953,23.8786974 24.8608566,23.9495807 L24.93,24.0086402 L25.7142857,24.7921057 L27.6871429,22.8177156 C27.7951144,22.7096329 27.9415716,22.6489104 28.0942857,22.6489104 Z M18.57,22.6489104 C18.6921713,22.6489104 18.8103382,22.6877728 18.9079995,22.7586561 L18.9771429,22.8177156 L19.5914286,23.4324786 C19.6994274,23.5405341 19.7601028,23.6871051 19.7601028,23.8399378 C19.7601028,23.9622041 19.7212705,24.0804627 19.6504422,24.1781999 L19.5914286,24.247397 L16.5971429,27.2440093 C16.4891713,27.352092 16.3427141,27.4128146 16.19,27.4128146 C16.0678287,27.4128146 15.9496618,27.3739522 15.8520005,27.3030688 L15.7828571,27.2440093 L13.9785714,25.4383217 C13.8705726,25.3302662 13.8098972,25.1836952 13.8098972,25.0308625 C13.8098972,24.9085963 13.8487295,24.7903376 13.9195578,24.6926004 L13.9785714,24.6234033 L14.5928571,24.0086402 C14.7008287,23.9005575 14.8472859,23.839835 15,23.839835 C15.1221713,23.839835 15.2403382,23.8786974 15.3379995,23.9495807 L15.4071429,24.0086402 L16.19,24.7921057 L18.1628571,22.8177156 C18.2708287,22.7096329 18.4172859,22.6489104 18.57,22.6489104 Z M92.0528571,21.4194872 C90.6785714,21.4194872 89.6885714,22.4717327 89.5885714,23.9257187 L89.5885714,23.9257187 L94.4485714,23.9257187 C94.4,22.4517172 93.4571429,21.4194872 92.0528571,21.4194872 Z M69.5914286,21.4194872 C68.2171429,21.4194872 67.2242857,22.4717327 67.1271429,23.9257187 L67.1271429,23.9257187 L71.9871429,23.9257187 C71.9371429,22.4517172 70.9942857,21.4194872 69.5914286,21.4194872 Z" id="dependabot-logo"></path>
                </g>
            </g>
        </g>
    </g>
</svg>