<?xml version="1.0" encoding="UTF-8"?>
<svg width="120px" height="47px" viewBox="0 0 120 47" version="1.1" xmlns="http://www.w3.org/2000/svg" xmlns:xlink="http://www.w3.org/1999/xlink">
    <!-- Generator: Sketch 58 (84663) - https://sketch.com -->
    <title>fat-llama-logo</title>
    <desc>Created with Sketch.</desc>
    <g id="Page-2" stroke="none" stroke-width="1" fill="none" fill-rule="evenodd">
        <g id="Group-8" transform="translate(-671.000000, -48.000000)" fill="#FFFFFF" fill-rule="nonzero">
            <g id="Group-5" transform="translate(623.000000, 0.000000)">
                <g id="Asset-1" transform="translate(48.000000, 48.000000)">
                    <path d="M89.5071194,0.00789915966 L89.5071194,0.00789915966 C90.463965,0.131652661 91.4786418,0.770168067 91.9163198,1.35338936 C92.3753377,1.95160497 92.6625574,2.66401613 92.746988,3.4137535 C93.5027382,3.62439776 94.2387733,4.34453782 94.5949617,4.93039216 C95.1224535,5.77332026 95.3728689,6.41899172 95.6774784,7.77081139 L95.7437021,8.07162465 L95.7594743,8.14140056 C95.792333,8.2967507 95.8488499,8.55610644 95.9079956,8.85232493 C96.0395562,9.43125931 96.1196068,10.0207386 96.147207,10.6138375 C96.147207,10.9535014 96.1945235,11.0087955 96.3259584,11.1404482 C96.5396039,11.3438215 96.6925176,11.602747 96.7675794,11.8882353 C96.8411403,12.2233364 96.8536081,12.5689988 96.8043812,12.9085434 C96.7780942,13.1757983 96.7754655,13.2745378 96.8148959,13.3298319 C96.9048389,13.4503574 97.0151577,13.5541756 97.1408543,13.6365826 C97.5293292,13.8946185 97.8167663,14.2792784 97.9544359,14.7253501 C98.0870946,15.1539522 98.1751855,15.595137 98.2173056,16.0418768 C98.2422782,16.2327731 98.2646221,16.4131373 98.2974808,16.5882353 C98.5261774,17.7954902 98.6983571,17.9008123 99.0860898,18.1470028 C99.452793,18.3813445 100.843373,18.307619 101.277108,19.392437 C102.2931,18.9777311 103.416867,19.1910084 103.783571,19.4121849 C103.783571,19.4121849 104.722015,18.6828291 106.562103,19.1936415 C107.907996,18.355014 109.270975,19.1383473 109.892662,19.3516246 C110.347426,19.345042 111.249069,18.8631933 112.957722,20.2442297 C113.057612,20.3232213 114.791238,19.7794958 115.928149,21.7542857 C116.177875,21.8095798 117.391019,21.7687675 118.017963,23.3064706 C118.801314,23.6764146 119.211391,24.4531653 119.236364,24.7546499 C119.252136,24.9152661 120.419277,25.752577 119.777875,27.679972 C119.57678,28.2842577 119.938226,28.3869468 119.73713,29.4270028 C119.562322,30.3643697 117.940416,31.0608123 117.5908,31.4320728 C117.66046,31.2398599 117.739321,31.0015686 117.819496,30.697451 C117.843154,30.6184594 117.865498,30.5394678 117.890471,30.4591597 C117.967773,30.1680525 118.027899,29.8726395 118.070537,29.5744538 C118.153543,29.0003992 118.172938,28.4189122 118.128368,27.8405882 C118.094242,27.3652412 118.001081,26.8960105 117.851041,26.4437535 C117.814239,26.3476471 117.786637,26.2554902 117.747207,26.1712325 C117.707777,26.0869748 117.66966,26.0079832 117.634173,25.9355742 C117.602752,25.8650161 117.566294,25.7968188 117.525082,25.7315126 C117.486966,25.6722689 117.451479,25.6196078 117.417306,25.5735294 C117.266156,25.3957983 117.163636,25.3181232 117.121577,25.3470868 C117.079518,25.3760504 117.099233,25.50507 117.162322,25.7038655 C117.174151,25.7565266 117.188609,25.8065546 117.204381,25.875014 C117.220153,25.9434734 117.239869,26.0027171 117.255641,26.0751261 C117.271413,26.147535 117.288499,26.222577 117.3069,26.3055182 C117.325301,26.3884594 117.335816,26.4779832 117.352903,26.5688235 C117.42078,26.9982045 117.455494,27.4321899 117.456736,27.8669188 C117.459919,28.4012063 117.423455,28.9349921 117.347645,29.4638655 C117.334502,29.5652381 117.317415,29.6639776 117.300329,29.7614006 C117.19346,30.3467931 117.028796,30.9201032 116.808762,31.4728852 C116.628338,31.9360632 116.540244,32.2066583 116.651129,32.7930814 L116.690471,32.9789916 L116.700986,33.0171709 C116.983571,33.8294678 116.796933,34.0980392 116.402629,34.579888 C116.255852,34.7627826 116.089711,34.9291985 115.907119,35.0762185 C115.762273,35.1937145 115.630116,35.3260899 115.512815,35.4711765 C115.294633,35.7265826 115.295947,35.9227451 115.316977,36.2755742 C115.354142,36.5663657 115.322166,36.8618385 115.223658,37.1378992 C115.04885,37.5565546 114.720263,37.750084 114.420591,37.8817367 C114.265603,37.9506103 114.179243,38.1181409 114.212924,38.2845938 C114.228697,38.3596359 114.247097,38.439944 114.26287,38.5070868 C114.367656,38.8756195 114.405934,39.2599274 114.375904,39.6419328 C114.313834,40.1448834 114.00445,40.5832863 113.551807,40.8096919 C113.509213,40.8162135 113.467942,40.8295488 113.429573,40.8491877 C113.271446,40.9353347 113.188189,41.1149532 113.224535,41.2915406 C113.206134,41.6404202 113.131216,42.4592997 112.548959,42.9266667 L112.529737,42.9378571 L112.529737,42.9378571 L112.509529,42.945098 L112.509529,42.9582633 L112.4977,42.967479 L112.508215,42.9872269 L112.424096,44.6987115 L112.424096,45.6861064 C112.424096,46.3114566 112.012705,46.6827171 111.480394,46.799888 C110.924425,46.9236415 110.265936,46.8643978 109.893976,46.8209524 C109.710975,46.8036853 109.542989,46.7121885 109.429043,46.5677171 C109.315097,46.4232457 109.265108,46.2383748 109.29069,46.0560504 C109.373494,45.4346499 109.888719,45.1568627 110.180504,45.0396919 C110.439869,44.93554 110.589153,44.7991413 110.619125,44.5112175 L110.624754,44.3959104 L110.718072,42.697591 C110.602751,42.6021859 110.499076,42.4934785 110.4092,42.3737255 C110.055509,41.9021457 110.028657,41.3847112 110.026824,41.0066535 L110.026725,40.7820448 C109.719168,40.7030532 109.26046,40.4463305 109.135597,39.6208683 C109.086916,39.1727136 109.078558,38.7210825 109.110624,38.2714286 C109.125082,37.872521 109.151369,37.1457983 109.056736,36.9167227 C108.373275,36.4980672 108.348302,35.6594398 108.329901,35.0433053 C108.330753,34.8227989 108.313167,34.6026083 108.277327,34.385042 C108.233954,34.1888796 108.21161,34.012465 108.191895,33.8584314 C108.180183,33.7444818 108.160863,33.6314462 108.134064,33.520084 C108.098277,33.5059477 108.061338,33.4949357 108.023658,33.4871709 L107.980531,33.4794346 L107.980531,33.4794346 L107.936911,33.4753221 L107.771939,33.4446874 C107.029106,33.3347873 106.658226,33.6749076 106.384666,33.9255742 C106.091566,34.1941457 105.914129,34.3560784 105.220153,34.0927731 C104.208105,33.7057143 103.837459,34.040112 103.519387,34.4482353 C103.373494,34.6351821 103.276232,34.757619 103.023877,34.7997479 C102.699562,34.8527381 102.297762,34.7595733 101.923257,34.5484765 L101.764732,34.4508683 L101.645126,34.3705602 C101.228947,34.0844978 100.520379,33.5997809 99.5951909,33.5941862 L99.3778751,33.6017087 L99.3778751,33.4108123 C99.3655674,33.1862028 99.3405546,32.9624731 99.3029573,32.7407003 C99.2700986,32.5313725 99.2319825,32.3378431 99.1978094,32.1495798 C99.1636364,31.9613165 99.1294633,31.7862185 99.1005476,31.6229692 C99.071632,31.4597199 99.0427163,31.3083193 99.0203724,31.1687675 C98.9980285,31.0292157 98.9717415,30.9041457 98.954655,30.7922409 C98.9375685,30.6803361 98.9125958,30.5829132 98.8955093,30.5039216 C98.8600219,30.3446218 98.8153341,30.252465 98.7640745,30.2498319 C98.7128149,30.2471989 98.6615553,30.3340896 98.6142388,30.4973389 C98.5869654,30.5958978 98.5663276,30.6961792 98.5524644,30.797507 C98.5410734,30.8764986 98.5326031,30.9625117 98.5258854,31.0555462 L98.516977,31.2003641 L98.516977,31.6861625 C98.5248631,31.8612605 98.5380066,32.0455742 98.5577218,32.2377871 C98.577437,32.43 98.6024096,32.630112 98.6260679,32.8315406 L98.6604053,33.136152 L98.6604053,33.136152 L98.6838992,33.4397759 L98.6838992,33.7320448 C98.6833787,33.7760704 98.6803068,33.8200286 98.6746988,33.8636975 C98.6694414,33.9137255 98.660241,33.9637535 98.660241,34.012465 C98.6399688,34.1455417 98.6399688,34.2809289 98.660241,34.4140056 C98.6668127,34.4495518 98.6707558,34.4837815 98.6825849,34.5193277 C98.694414,34.5548739 98.7062432,34.5891036 98.7193866,34.6220168 C98.7309354,34.6544479 98.7454551,34.685739 98.7627601,34.7154902 L98.7847033,34.7569007 L98.7847033,34.7569007 L98.8087623,34.7971148 L98.8547645,34.8668908 L98.894195,34.9221849 L98.9270537,34.9722129 L98.9572837,35.0169748 C98.9888236,35.07062 99.0143875,35.1275719 99.0335159,35.1868067 C99.0686729,35.3128664 99.0872309,35.442988 99.0887185,35.5738655 C99.0887185,35.7068347 99.0952903,35.8292717 99.0887185,35.9411765 C98.9417144,36.2881818 98.8691713,36.6622636 98.8757941,37.0391597 C98.8845735,37.1014026 98.9032085,37.1618444 98.9309967,37.2182073 C99.2364597,37.788505 99.0499808,38.4982994 98.5038335,38.8441176 C98.446196,38.8799239 98.3943414,38.9243175 98.3500548,38.9757703 C98.3592945,39.0565947 98.3742277,39.1366636 98.3947426,39.2153782 C98.4683461,39.5313445 98.6221249,40.1882913 98.0438116,40.6517087 C97.9978094,40.6872549 97.9518072,40.7241176 97.9899233,41.1467227 C98.0564453,41.6321959 97.9092085,42.1226776 97.5864184,42.4908964 L97.4868079,42.5903276 L97.4868079,42.5903276 L97.3787514,42.6804762 L97.3787514,45.6821569 C97.3787514,46.307507 96.9607886,46.6787675 96.4350493,46.7959384 C95.87908,46.9196919 95.2219058,46.8604482 94.8486309,46.8170028 C94.6658669,46.7994005 94.4982191,46.7077614 94.3845527,46.56333 C94.2708864,46.4188985 94.2210726,46.2342175 94.2466594,46.0521008 C94.3294633,45.4307003 94.8368018,45.1884594 95.1364732,45.0357423 C95.4028478,44.8999938 95.5466796,44.7881703 95.5753537,44.5060977 L95.5807229,44.3919608 L95.5807229,42.9687955 C95.2583429,42.8646704 94.9754035,42.6644013 94.76977,42.3947899 C94.4135816,41.927423 94.3110624,41.2796919 94.4911281,40.6214286 C94.4911281,40.620112 94.5069003,40.4858263 94.1125958,40.1843417 C93.3870756,39.6432493 93.5277108,38.7348459 93.5868565,38.3767507 C93.5362084,38.2835278 93.4767933,38.1953597 93.4094195,38.1134454 C93.2668083,37.9390962 93.1503572,37.7448371 93.0637459,37.5368067 C92.9112328,37.1157599 92.8660557,36.6632401 92.9323111,36.2202801 C92.9503659,36.1004865 92.9547753,35.9790261 92.9454545,35.8582353 C92.863965,35.2842297 92.6247536,35.1288796 92.2619934,34.8892717 C91.8598028,34.6233333 91.2538883,34.2231092 91.2538883,33.2659944 C91.2538883,33.1922689 91.2568091,33.1255649 91.2607034,33.064322 L91.2670318,32.9763585 L91.2670318,32.9026331 C90.8714129,32.7156863 90.6584885,32.3865546 90.5415115,31.8020168 L90.5308654,31.731273 L90.5308654,31.731273 L90.5270537,31.6598319 L90.5270537,30.9370588 C90.5273056,30.8893089 90.5321472,30.8416942 90.5415115,30.7948739 C90.5654824,30.6852989 90.5799938,30.5738606 90.584885,30.4617927 C90.3652835,30.3657522 90.1917534,30.1876836 90.1012048,29.9654622 C89.9618839,29.6126331 90.0854326,29.2637535 90.1905805,29.0320448 C90.2707558,28.8543137 90.2536692,28.8082353 90.1564074,28.54493 C89.8870102,27.9349651 89.8975754,27.237464 90.1853231,26.6359664 C90.264184,26.4516527 90.2549836,26.3976751 89.9750274,26.0316807 C89.6950712,25.6656863 89.2731654,25.1114286 89.5150055,24.3043978 C89.6043812,24.0068627 89.5846659,23.9686835 89.5255203,23.8580952 C89.2429354,23.3301681 89.1956188,22.8417367 89.7213582,21.7792997 C89.8524304,21.5443721 89.929233,21.2829905 89.9461117,21.0143978 C89.7057656,20.8862592 89.5192382,20.676068 89.4203724,20.4219608 C89.2166484,19.8940336 89.441402,19.3187115 89.6293538,18.9316527 C89.6806134,18.825014 89.7252191,18.736889 89.7631709,18.6628344 L89.7989047,18.5933053 L89.8159912,18.5603922 C89.5985964,18.41728 89.4237782,18.2180663 89.3099671,17.9837535 C88.9301205,17.1451261 89.3533406,16.3157143 89.6622125,15.7087955 C89.7793772,15.4808483 89.9197175,15.204539 89.9574235,15.0315865 L89.9671413,14.9544258 L89.9671413,14.9438936 C89.9334478,14.9011852 89.8970066,14.8607257 89.8580504,14.8227731 C89.5657759,14.5437991 89.4536676,14.1246016 89.5675794,13.7366387 C89.6362659,13.5248202 89.7441713,13.3278568 89.8856517,13.1560504 C89.8067908,13.0243978 89.6779847,12.7610924 89.622782,11.9711765 C89.6017525,11.6644258 89.5794085,11.0970028 89.6766703,10.7428571 C89.7542169,10.4545378 89.8002191,10.1991317 89.8409639,9.97268908 C89.8514786,9.91344538 89.8619934,9.85288515 89.8738226,9.79364146 C88.2440307,10.2162465 86.2449069,9.93977591 85.6403067,9.45529412 C85.377437,9.24464986 85.3445783,8.69829132 85.5088719,8.30333333 C85.5943045,8.09532213 85.2210296,7.58714286 85.577218,7.26459384 C86.3690438,6.54677169 87.2327725,5.9127915 88.154655,5.3727451 C88.1078278,5.28167182 88.078829,5.18246544 88.0692223,5.08047619 C88.0573932,4.85140056 88.1086528,4.49593838 88.4635268,4.11019608 L88.5233297,4.04782563 L88.5233297,4.04782563 L88.5870756,3.98644258 L87.1189485,2.83053221 C86.6470975,2.42372549 86.8324206,1.92212885 87.2503834,1.82602241 C88.0836802,1.62196078 89.1259584,1.88526611 89.6832421,2.28022409 C89.9085249,2.45531208 90.110821,2.65778022 90.2855678,2.8827695 L90.411391,3.05565826 L90.4823658,3.03985994 L89.0089814,0.900504202 C88.6958572,0.405645082 88.9537242,0.0358332122 89.3446779,0.00269629366 L89.4245134,0.000620613806 Z M101.136638,34.8899668 L101.241621,34.9616807 L101.373056,35.0472549 C101.806321,35.3485981 102.317861,35.516954 102.845126,35.5317367 C102.946798,35.5319066 103.048322,35.5239825 103.14874,35.5080392 C103.679737,35.4211485 103.915005,35.1262465 104.096386,34.8879552 C104.277766,34.6496639 104.359255,34.5456583 104.884995,34.732605 C104.762625,34.8990216 104.65945,35.078774 104.577437,35.2684314 C104.335597,35.7937255 104.576123,36.4809524 104.497262,36.8745938 C104.418401,37.2682353 104.01621,37.2761345 104.01621,37.5973669 C104.01621,37.9185994 104.336911,38.2398319 104.336911,38.7216807 C104.336911,39.5247619 103.833516,39.6985434 104.096386,40.4884594 C104.366059,41.3000593 104.010521,42.1104931 103.366176,42.4434036 L103.242059,42.500112 L103.242059,45.6808403 C103.242059,46.3061905 102.830668,46.677451 102.298357,46.7946218 C101.742388,46.9183754 101.083899,46.8591317 100.711939,46.8156863 C100.528937,46.7984192 100.360952,46.7069224 100.247006,46.562451 C100.13306,46.4179796 100.083071,46.2331087 100.108653,46.0507843 C100.191457,45.4293838 100.698795,45.1871429 100.998467,45.0344258 C101.264841,44.8986772 101.408673,44.7868538 101.437347,44.5047812 L101.442716,44.3906443 L101.442716,42.6067507 C101.150966,42.4177528 100.950586,42.1159703 100.889376,41.7733894 C100.8092,40.9703081 100.481928,41.2915406 100.167798,40.89 C99.8536692,40.4884594 100.313691,40.1580112 100.247974,39.6853782 C100.182256,39.2127451 99.7669222,39.3536134 99.7669222,38.3201401 C99.7682366,37.5460224 100.190142,37.2577031 99.6433735,36.1821008 C99.5978094,36.0978431 99.5539978,36.014902 99.5119387,35.9332773 C99.5434691,35.8294363 99.5693559,35.7239594 99.5894852,35.6173109 C99.6236239,35.4353584 99.6280627,35.2490629 99.6026287,35.0656863 C99.5835684,34.9535676 99.5504476,34.8443091 99.5040526,34.7405042 C99.4922234,34.7154902 99.4803943,34.6931092 99.4672508,34.6667787 L99.4478642,34.6294223 L99.4304491,34.5970028 L99.3949617,34.5338095 L99.3673604,34.4811485 C99.3594971,34.4666452 99.3524756,34.4516998 99.3463308,34.4363866 C99.3401824,34.4232922 99.3353396,34.4096218 99.3318729,34.3955742 L99.3278531,34.3769975 L99.3226725,34.3587115 L99.3226725,34.3310644 C100.09187,34.228983 100.702038,34.5958031 101.136638,34.8899668 Z M118.852574,31.292521 C118.88149,31.8915406 119.152245,32.2285714 118.997152,32.6946218 C118.842059,33.1606723 118.555531,33.1830532 118.676451,33.8189356 C118.913034,35.0762185 118.916977,35.5857143 118.756627,36.1478711 C118.491128,37.0773389 118.115225,36.8706443 118.115225,37.7540336 C118.115225,38.3728011 118.107338,38.9770868 117.954874,39.279888 C117.80241,39.5826891 117.632859,39.6011204 117.632859,40.1632773 C117.632859,40.9413445 117.780066,41.1572549 117.552683,41.6114566 C117.483937,41.75749 117.384387,41.8868503 117.260898,41.9906162 L117.260898,41.9906162 L116.998028,44.6921289 L116.998028,45.6795238 C116.998028,46.3048739 116.580066,46.6761345 116.054326,46.7933053 C115.498357,46.9170588 114.841183,46.8578151 114.467908,46.8143697 C114.28506,46.7967404 114.117308,46.7051488 114.003435,46.5607704 C113.889562,46.416392 113.839428,46.2317266 113.864622,46.0494678 C113.94874,45.4280672 114.454765,45.1858263 114.754436,45.0331092 C115.054107,44.8803922 115.198686,44.7579552 115.198686,44.3893277 L115.198686,44.3893277 L115.445783,42.1512325 C114.975246,41.9616527 114.708434,41.5206162 114.588828,40.8821008 C114.861479,40.5557868 115.03443,40.157658 115.086966,39.7354062 C115.12978,39.2904357 115.092383,38.8413796 114.976561,38.4096639 C115.38449,38.1919001 115.705524,37.8405939 115.88609,37.4143697 C116.028819,37.0368292 116.079293,36.6305612 116.033297,36.2294958 C116.026266,36.146314 116.024071,36.0627929 116.026725,35.9793557 C116.036156,35.9661295 116.046245,35.9533869 116.056955,35.9411765 C116.147317,35.8290547 116.249558,35.7270853 116.361884,35.6370588 C116.580554,35.4614465 116.779333,35.262338 116.954655,35.0433053 C117.437021,34.4640336 117.78138,33.9308403 117.387076,32.7986275 C117.328895,32.5996826 117.311019,32.3910923 117.334502,32.1851261 C117.541615,32.1194116 117.73983,32.0283203 117.924644,31.9139216 C118.159912,31.7730532 118.817087,31.3438655 118.852574,31.292521 Z M73.3866375,31.7019608 C74.9861993,31.7019608 76.5581599,32.2983473 77.5334064,33.222549 L77.588609,33.222549 L77.588609,31.9455182 L82.6028478,31.9442017 L82.6028478,46.3338375 L77.588609,46.3338375 L77.588609,44.8672269 L77.5334064,44.8672269 C76.6935378,45.9533613 75.1215772,46.5787115 73.3866375,46.5787115 C69.2674699,46.5787115 66.2589266,43.4572269 66.2589266,39.1403361 C66.2589266,34.8234454 69.2674699,31.7019608 73.3866375,31.7019608 Z M29.1837897,31.7019608 C30.7820372,31.7019608 32.3539978,32.2983473 33.3305586,33.222549 L33.3844469,33.222549 L33.3844469,31.9455182 L38.3986857,31.9442017 L38.3986857,46.3338375 L33.3844469,46.3338375 L33.3844469,44.8672269 L33.3305586,44.8672269 C32.49069,45.9533613 30.9174151,46.5787115 29.1837897,46.5787115 C25.0633078,46.5787115 22.0547645,43.4572269 22.0547645,39.1403361 C22.0547645,34.8234454 25.0633078,31.7019608 29.1837897,31.7019608 Z M58.6120482,31.537395 C62.4065717,31.537395 65.415115,34.062493 65.415115,37.6184314 L65.415115,46.3338375 L60.3522453,46.3338375 L60.3522453,38.3793838 C60.3522453,36.8587955 59.3007667,35.8779832 57.6683461,35.8779832 C56.0700986,35.8779832 54.9581599,36.882493 54.9581599,38.3793838 L54.9581599,46.3338375 L50.1607886,46.3338375 L50.1607886,38.3793838 C50.1607886,36.8587955 49.1303395,35.8779832 47.5044907,35.8779832 C45.8786418,35.8779832 44.7667032,36.882493 44.7667032,38.3793838 L44.7667032,46.3338375 L39.6933187,46.3338375 L39.6933187,31.9442017 L44.5997809,31.9442017 L44.5997809,33.2212325 L44.6536692,33.2212325 C45.6289157,32.107451 47.1745893,31.537395 48.9910186,31.537395 C50.8889376,31.537395 52.4871851,32.2154062 53.5715225,33.4371429 L53.6254107,33.4371429 C54.845126,32.2430532 56.6063527,31.537395 58.6120482,31.537395 Z M21.3121577,26.5148459 L21.3121577,46.3338375 L16.1086528,46.3338375 L16.1086528,26.5148459 L21.3121577,26.5148459 Z M5.17853231,27.3297759 L5.17853231,41.6641176 L14.8534502,41.6641176 L14.8534502,46.3338375 L-3.8191672e-14,46.3338375 L-3.8191672e-14,27.3297759 L5.17853231,27.3297759 Z M74.5800657,36.0372829 C72.6821468,36.0372829 71.4624315,37.177395 71.4624315,39.0784594 C71.4624315,40.9215966 72.6821468,42.0919888 74.5800657,42.0919888 C76.1783133,42.0919888 77.3980285,41.1138095 77.3980285,39.8380952 L77.3980285,38.2635294 C77.3980285,36.9878151 76.1783133,36.0372829 74.5800657,36.0372829 Z M30.3759036,36.0372829 C28.479299,36.0372829 27.2595838,37.177395 27.2595838,39.0784594 C27.2595838,40.9215966 28.479299,42.0919888 30.3759036,42.0919888 C31.9754655,42.0919888 33.1951807,41.1138095 33.1951807,39.8380952 L33.1951807,38.2635294 C33.1951807,36.9878151 31.9754655,36.0372829 30.3759036,36.0372829 Z M60.5362541,15.8786275 C62.135816,15.8786275 63.7077766,16.4763305 64.683023,17.3992157 L64.7369113,17.3992157 L64.7369113,16.1235014 L69.7511501,16.1221849 L69.7511501,30.5105042 L64.7369113,30.5105042 L64.7369113,29.0452101 L64.683023,29.0452101 C63.8431544,30.130028 62.2711939,30.7566947 60.5362541,30.7566947 C56.4157722,30.7566947 53.4072289,27.6338936 53.4072289,23.3183193 C53.4072289,19.0027451 56.4157722,15.8786275 60.5362541,15.8786275 Z M78.8963855,12.3213725 L78.8963855,16.1221849 L82.6028478,16.1221849 L82.6028478,20.1428571 L78.8963855,20.1428571 L78.8963855,24.6493277 C78.8963855,25.5182353 79.3038335,25.8987115 80.169989,25.8987115 L82.6028478,25.8987115 L82.6028478,30.5131373 L79.2762322,30.5131373 C75.4278204,30.5131373 73.6928806,28.695014 73.6928806,25.2193838 L73.6928806,20.1428571 L70.6698795,20.1428571 L70.6698795,16.1221849 L73.6928806,16.1221849 L73.6928806,12.3213725 L78.8963855,12.3213725 Z M54.7688938,11.5064426 L54.7688938,16.0260784 L44.6484118,16.0260784 L44.6484118,20.0046218 L52.566046,20.0046218 L52.566046,24.3478431 L44.6484118,24.3478431 L44.6484118,30.5105042 L39.6985761,30.5105042 L39.6985761,11.5064426 L54.7688938,11.5064426 Z M61.728368,20.2152661 C59.8317634,20.2152661 58.6120482,21.3553782 58.6120482,23.2551261 C58.6120482,25.0982633 59.8317634,26.2686555 61.728368,26.2686555 C63.3279299,26.2686555 64.5476451,25.2917927 64.5476451,24.0160784 L64.5476451,22.4415126 C64.5476451,21.1644818 63.3279299,20.2152661 61.728368,20.2152661 Z M88.9813801,6.47336134 C88.8697804,6.52621974 88.7797435,6.61594104 88.7263965,6.72745098 C88.6843824,6.80571525 88.6781537,6.8983396 88.70931,6.98154062 C88.723588,7.02465572 88.7671017,7.05091895 88.8118291,7.04341737 C88.8407448,7.03420168 88.8578313,7.00655462 88.8854326,6.98154062 C88.9158994,6.95556628 88.9494498,6.93345709 88.9853231,6.91571429 C89.0316334,6.88860034 89.0823559,6.86988214 89.1351588,6.86042017 C89.2035453,6.84694661 89.2736162,6.84428128 89.3428258,6.85252101 C89.4959045,6.87910879 89.6454129,6.92328463 89.7883899,6.98417367 C89.9237678,7.03288515 90.03023,7.04868347 90.0696605,6.99865546 C90.1064622,6.9512605 90.0762322,6.84593838 89.9776561,6.72481793 C89.9156849,6.64993822 89.8425323,6.58510199 89.7607886,6.53260504 C89.6495513,6.46059558 89.5231017,6.41552114 89.3914567,6.40095238 C89.2506606,6.38519882 89.1083116,6.41033398 88.9813801,6.47336134 Z" id="fat-llama-logo"></path>
                </g>
            </g>
        </g>
    </g>
</svg>