<?xml version="1.0" encoding="UTF-8"?>
<svg width="160px" height="16px" viewBox="0 0 160 16" version="1.1" xmlns="http://www.w3.org/2000/svg" xmlns:xlink="http://www.w3.org/1999/xlink">
    <!-- Generator: Sketch 58 (84663) - https://sketch.com -->
    <title>gc-logo</title>
    <desc>Created with Sketch.</desc>
    <g id="Page-2" stroke="none" stroke-width="1" fill="none" fill-rule="evenodd">
        <g id="Group-8" transform="translate(-1917.000000, -48.000000)" fill="#FFFFFF" fill-rule="nonzero">
            <g id="Group-5-Copy-5" transform="translate(1869.000000, 0.000000)">
                <path d="M56.4887345,63.9989979 C51.4693266,63.9989979 48,60.6240371 48,56.0496023 L48,55.999499 C48,51.6104465 51.5733452,48 56.4540616,48 C59.360464,48 61.1043054,48.7595666 62.794098,50.1263857 L60.5740145,52.7077097 C59.3247713,51.7116553 58.2152395,51.137471 56.3480034,51.137471 C53.7577361,51.137471 51.7150961,53.3319972 51.7150961,55.9473915 L51.7150961,55.999499 C51.7150961,58.8353479 53.7414194,60.9096261 56.6121291,60.9096261 C57.8970649,60.9096261 59.0596259,60.6070019 59.9590809,59.9827143 L59.9590809,57.771153 L56.3826763,57.771153 L56.3826763,54.8350974 L63.3937347,54.8350974 L63.3937347,61.5519509 C61.7375952,62.8867038 59.4471462,64 56.4897543,64 L56.4887345,63.9989979 Z M74.3136493,63.9989979 C69.3289142,63.9989979 65.7535294,60.4376527 65.7535294,56.0506044 L65.7535294,55.999499 C65.7535294,51.6104465 69.3635871,48 74.3483221,48 C79.3320373,48 82.908442,51.5613453 82.908442,55.9483936 L82.908442,55.999499 C82.908442,60.3885514 79.2983843,63.9989979 74.3116097,63.9989979 L74.3136493,63.9989979 Z M79.1923261,55.999499 C79.1923261,53.3500344 77.1670225,51.1394752 74.3136493,51.1394752 C71.460276,51.1394752 69.4696453,53.298929 69.4696453,55.9493956 L69.4696453,55.999499 C69.4696453,58.6489635 71.4959686,60.8595228 74.3666784,60.8595228 C77.2373881,60.8595228 79.2106823,58.7000689 79.2106823,56.0496023 L79.2106823,55.999499 L79.1923261,55.999499 Z M93.1430575,63.9989979 C88.4928137,63.9989979 85.0581599,60.4887581 85.0581599,56.0165341 C85.0581599,51.5944135 88.4744574,48 93.2124032,48 C96.136142,48 97.8973199,48.9960544 99.5004302,50.447047 L98.2491475,51.7296925 C96.8928264,50.4971504 95.3611014,49.6023048 93.1767105,49.6023048 C89.6023455,49.6023048 86.925396,52.3700132 86.925396,55.9654287 C86.925396,59.5598422 89.619682,62.378656 93.1767105,62.378656 C95.396794,62.378656 96.8418369,61.5669819 98.3908984,60.1500595 L99.589152,61.2823949 C97.9166959,62.9177679 96.0667963,63.9979959 93.1440772,63.9979959 L93.1430575,63.9989979 Z M117.484432,63.729442 L115.530514,63.729442 L113.627585,59.6450178 L104.836993,59.6450178 L102.917748,63.729442 L101.051531,63.729442 L108.414417,48.1513121 L110.121546,48.1513121 L117.484432,63.729442 Z M109.258804,50.1935241 L105.577361,58.0757813 L112.92291,58.0757813 L109.258804,50.1935241 Z M131.223047,63.729442 L126.538131,57.7210497 L121.924599,57.7210497 L121.924599,63.729442 L120.109373,63.729442 L120.109373,48.269556 L127.049046,48.269556 C130.606074,48.269556 132.879187,50.1093505 132.879187,52.8940941 C132.879187,55.4774222 131.029287,56.9795203 128.494088,57.4184255 L133.442111,63.7314461 L131.223047,63.7314461 L131.223047,63.729442 Z M126.907295,49.8728628 L121.924599,49.8728628 L121.924599,56.1518131 L126.872622,56.1518131 C129.285446,56.1518131 131.029287,54.9533413 131.029287,52.9451995 C131.029287,51.0212313 129.514898,49.8728628 126.907295,49.8728628 Z M142.002231,63.729442 L136.401542,63.729442 L136.401542,48.269556 L142.002231,48.269556 C147.075688,48.269556 150.580707,51.6114486 150.580707,55.9824638 C150.580707,60.3534791 147.075688,63.7284399 142.002231,63.7284399 L142.002231,63.729442 Z M142.002231,49.8728628 L138.215749,49.8728628 L138.215749,62.108098 L142.002231,62.108098 C146.088531,62.108098 148.696134,59.4596355 148.696134,56.015532 C148.696134,52.5734327 146.088531,49.8728628 142.002231,49.8728628 L142.002231,49.8728628 Z M154.015361,48.269556 L155.830587,48.269556 L155.830587,62.1261352 L164.916919,62.1261352 L164.916919,63.729442 L154.015361,63.729442 L154.015361,48.269556 Z M179.272507,49.8568297 L169.426432,49.8568297 L169.426432,55.1377216 L178.233341,55.1377216 L178.233341,56.7249953 L169.426432,56.7249953 L169.426432,62.1431703 L179.395902,62.1431703 L179.395902,63.730444 L167.611205,63.730444 L167.611205,48.269556 L179.272507,48.269556 L179.272507,49.8568297 L179.272507,49.8568297 Z M188.432264,55.1557588 C192.024985,55.9153254 193.681124,57.1639005 193.681124,59.5448112 C193.681124,62.2103088 191.373339,63.9318595 188.167118,63.9318595 C185.613563,63.9318595 183.516874,63.1201854 181.579273,61.4507422 L182.707161,60.1680967 C184.397973,61.6190894 186.001084,62.3626229 188.238503,62.3626229 C190.404538,62.3626229 191.831225,61.2823949 191.831225,59.7121563 C191.831225,58.2611637 191.021511,57.4344586 187.639887,56.7590656 C183.922751,55.9824638 182.214602,54.8350974 182.214602,52.2698065 C182.214602,49.7886892 184.451002,48.0340703 187.515472,48.0340703 C189.876287,48.0340703 191.549763,48.675393 193.187546,49.9420054 L192.131043,51.2897852 C190.633991,50.1273877 189.135919,49.620342 187.480799,49.620342 C185.38513,49.620342 184.046146,50.716603 184.046146,52.1355295 C184.063482,53.6185883 184.892571,54.4302624 188.431244,55.1557588 L188.432264,55.1557588 Z M202.751139,55.1557588 C206.34488,55.9153254 208,57.1639005 208,59.5448112 C208,62.2103088 205.693234,63.9318595 202.487014,63.9318595 C199.932439,63.9318595 197.83677,63.1201854 195.899168,61.4507422 L197.026037,60.1680967 C198.716849,61.6190894 200.319959,62.3626229 202.556359,62.3626229 C204.723414,62.3626229 206.1501,61.2823949 206.1501,59.7121563 C206.1501,58.2611637 205.339367,57.4344586 201.958762,56.7590656 C198.241627,55.9824638 196.533478,54.8350974 196.533478,52.2698065 C196.533478,49.7886892 198.769878,48.0340703 201.834348,48.0340703 C204.195162,48.0340703 205.868638,48.675393 207.506421,49.9420054 L206.450939,51.2897852 C204.951847,50.1273877 203.455814,49.620342 201.800695,49.620342 C199.704006,49.620342 198.366041,50.716603 198.366041,52.1355295 C198.366041,53.6185883 199.194111,54.4302624 202.751139,55.1557588 L202.751139,55.1557588 Z" id="gc-logo"></path>
            </g>
        </g>
    </g>
</svg>