<?xml version="1.0" encoding="UTF-8"?>
<svg width="62px" height="56px" viewBox="0 0 62 56" version="1.1" xmlns="http://www.w3.org/2000/svg" xmlns:xlink="http://www.w3.org/1999/xlink">
    <!-- Generator: Sketch 58 (84663) - https://sketch.com -->
    <title>memrise-logo</title>
    <desc>Created with Sketch.</desc>
    <g id="Page-2" stroke="none" stroke-width="1" fill="none" fill-rule="evenodd">
        <g id="Group-8" transform="translate(-48.000000, -48.000000)" fill="#2B3648" fill-rule="nonzero">
            <g id="Group-5-Copy-7">
                <path d="M57.4593875,77.5384615 C57.9117073,77.5384615 58.2129858,77.575635 58.6277998,77.6130736 C59.9842233,77.6502471 60.05961,77.7248591 60.9264758,77.9487483 C61.2280758,78.0233604 61.5296224,78.0979724 61.830901,78.2097049 C62.1324475,78.3589821 62.321048,78.4707676 62.5848209,78.5828183 C63.3008598,78.8812665 63.5645791,78.9556134 64.6576048,79.8135725 C64.8459374,80.0002353 64.8081102,79.9256232 65.03427,80.1491943 C65.2604299,80.3730304 65.3736974,80.5968666 65.750309,81.0817655 C65.8635765,81.2684282 66.2402418,81.7904474 66.3156284,81.9396716 C66.391015,82.0514571 67.1071076,83.6555898 67.1449349,84.6624549 L67.1449349,85.445802 C67.1449349,86.0052599 67.22,86.4154937 67.22,86.9750045 C67.22,87.9446962 66.6925615,89.6606145 66.6925615,89.6606145 C66.6171749,89.9216241 66.5793476,90.0708482 66.5042289,90.2946844 C66.391015,90.481082 66.3534556,90.6303591 66.2402418,90.8541953 C66.0140283,91.264429 65.7881899,91.5254387 65.4865898,91.8613255 C65.2604299,92.1970002 64.921324,92.607234 64.6197775,92.9428557 C64.3181775,93.2041835 63.4138058,94.1364365 63.2630326,94.3977644 C63.1122593,94.658721 63.1122593,94.9197306 63.1122593,94.9943426 C63.1500866,95.5538535 63.6021384,95.8523018 63.790739,96.0015789 C64.5068316,96.5235452 64.2806717,96.3372007 65.03427,96.7474344 C65.1096566,96.8220465 65.4112568,97.0084441 65.7128032,97.1204947 C65.8635765,97.1951068 66.3534556,97.2697719 66.5417883,97.3815044 C67.1449349,97.717126 67.1071076,98.351249 67.1071076,98.4633527 C67.1071076,98.8360948 67.0316674,99.059984 67.0695482,99.4330443 C67.0695482,99.7315456 67.1071076,99.9550636 67.1071076,100.253512 C67.1071076,100.850461 66.9941616,101.297869 66.9941616,101.894818 C66.9941616,102.193001 67.0316674,102.416837 67.0316674,102.715286 C67.0316674,103.461194 66.5417883,103.647857 66.2402418,103.797081 C66.1648551,103.834254 65.9011359,103.946358 65.7128032,103.983478 C65.5995358,104.020652 65.4865898,103.983478 65.4487625,103.983478 C65.2983107,103.983478 65.0720973,103.983478 64.7329915,103.908866 C63.8282983,103.759642 63.3762464,103.461194 62.9617539,103.200131 C62.54694,102.939122 62.2832207,102.752777 62.0948881,102.6035 C61.830901,102.416837 61.717955,102.23044 61.4542357,102.044042 C60.6627566,101.409919 60.2482641,100.925073 59.9091582,100.552013 C59.4567848,100.104288 59.4567848,100.029676 59.1930656,99.8058394 C58.9669057,99.6194419 58.7782516,99.5448298 58.5145324,99.3584322 C57.760934,98.7614828 58.1000399,98.9107069 57.044895,98.3140756 C56.9316275,98.2766369 56.7432949,98.1648514 56.5925217,98.1274128 C56.404189,98.0527477 56.2534158,98.0527477 56.1780292,98.0527477 C56.0272559,98.0527477 55.9518157,98.0156273 55.8010424,98.0156273 C55.3111633,98.0156273 54.9344981,98.425861 54.8591115,98.5750852 C54.7083382,98.7989744 54.7083382,98.8360948 54.6329516,99.059984 C54.4821783,99.3209406 54.5196841,99.2463285 54.4821783,99.4702178 C54.4067381,99.694054 54.4067381,100.104288 54.4067381,100.626625 C54.4067381,101.223256 54.4821783,101.409919 54.5196841,101.745594 C54.5575649,101.894818 54.5575649,102.006551 54.5950707,102.193001 C54.6329516,102.342225 54.7083382,102.566061 54.7083382,102.901683 C54.7083382,103.797081 53.916859,103.946358 53.6906991,103.946358 C53.3515932,103.946358 52.9371007,103.834254 52.8992199,103.834254 C52.5225547,103.759642 52.2963948,103.759642 52.1456215,103.759642 C51.5803558,103.759642 51.1658097,103.834254 50.6005439,103.834254 L49.6958508,103.834254 C49.5264319,103.862333 49.3992671,103.869353 49.2508623,103.871108 L49.0930257,103.871693 C48.8668123,103.871693 48.8293065,103.871693 48.6785332,103.797081 C48.3769331,103.647857 48,103.200131 48,102.566061 C48,102.305052 48.0378273,102.118654 48.0753866,101.820206 C48.1507733,101.409919 48.1507733,101.036859 48.1507733,100.925073 C48.1507733,100.365615 48.1132139,99.9550636 48.1132139,99.3956057 C48.1132139,98.7614828 48.1507733,98.3140756 48.1886005,97.717126 C48.2261599,97.3068923 48.2640407,97.0084441 48.2640407,96.5982103 C48.2640407,95.8523018 48.1886005,95.367456 48.1886005,94.6212823 C48.1886005,93.8754269 48.1507733,93.315969 48.1507733,92.532622 C48.1507733,92.0477761 48.1886005,91.7121014 48.1886005,91.2272556 C48.1886005,90.6303591 48.1132139,90.2200724 48.1132139,89.623441 C48.1132139,88.5788191 48.1507733,87.8329637 48.1886005,86.7886069 C48.2640407,85.7814237 48.3393738,85.0726887 48.3393738,84.028385 C48.3393738,83.31965 48.3015465,82.7976307 48.3015465,82.0514571 L48.3015465,81.4173871 C48.3015465,80.8578762 48.2261599,80.4851341 48.2261599,79.9256232 C48.2261599,78.993052 48.1886005,78.5082062 48.6406524,78.0233604 C48.9046931,77.7248591 49.2059717,77.575635 49.7712375,77.575635 C50.1106648,77.575635 50.4118898,77.6130736 50.7134899,77.6130736 C51.1279824,77.6130736 51.3920231,77.575635 51.7686348,77.575635 C52.3717814,77.575635 52.7862739,77.6130736 53.3891526,77.6130736 C53.8414724,77.6130736 54.1805782,77.6502471 54.6329516,77.6502471 C55.1228307,77.6502471 55.4619366,77.575635 55.9896965,77.575635 C56.517135,77.575635 56.9316275,77.5384615 57.4593875,77.5384615 Z M71.5933683,84.9230769 C72.1132106,84.9230769 72.4473158,85.0735396 72.9671581,85.0735396 C73.3754738,85.0735396 73.6353158,85.0360849 74.0436313,85.0360849 L74.8605792,85.0360849 C75.0087889,85.0360849 75.0830521,85.0360849 75.1573153,85.1113162 C75.4174212,85.2615642 75.7514736,85.7508362 75.8627364,85.9763155 C75.8925473,86.0667219 75.8985095,86.1811336 75.8997019,86.2424589 L75.9,86.2772945 C75.9,86.4278645 75.9,86.5030958 75.8627364,86.6536121 L75.8627364,87.7068508 C75.8627364,88.4591104 75.7884733,89.0233453 75.7142101,89.8133817 C75.6772104,90.6033642 75.7142101,91.1301445 75.7142101,91.9198589 C75.7142101,92.3714078 75.6399469,92.7098951 75.6399469,93.1614441 C75.6399469,93.7256791 75.6772104,94.1019431 75.7142101,94.666178 C75.7514736,95.3809829 75.7884733,95.9074413 75.7884733,96.6221926 C75.7884733,97.2242578 75.7514736,97.6379765 75.7514736,98.2397198 C75.7514736,98.7287235 75.8257368,99.0675327 75.8627364,99.5939911 C75.8925473,99.9250089 75.8985095,100.159868 75.8997019,100.471599 L75.9,101.625237 C75.9,102.264757 75.8627364,102.490505 75.5659476,103.09257 C75.3801577,103.431057 75.0830521,103.957515 74.3406841,103.957515 C73.8950522,103.957515 73.5983161,103.882606 73.1526842,103.882606 C72.7813683,103.882606 72.521579,103.957515 72.1502103,103.957515 C71.7418947,103.995292 71.4451058,103.995292 71.0365263,103.995292 C70.9622103,103.995292 70.3311052,104.070577 69.9227896,103.619028 C69.8115267,103.506342 69.7,103.280541 69.7,102.979562 C69.7,102.716306 69.7372635,102.528281 69.7372635,102.264757 C69.8115267,101.437266 69.8857899,100.835576 69.8857899,100.007763 C69.8857899,99.2177271 69.8115267,98.6534385 69.8485264,97.8637778 C69.8485264,97.4496836 69.9227896,97.1111962 69.8857899,96.6974776 C69.8857899,96.0579576 69.8115267,95.6441853 69.8115267,95.0046653 L69.8115267,93.8384188 C69.8115267,92.6346101 69.7372635,91.7696645 69.7372635,90.5659096 C69.7372635,89.5875803 69.8485264,88.9106057 69.8485264,87.8948218 C69.8485264,87.5563345 69.8485264,87.3305868 69.8115267,86.9920994 C69.7742104,86.6910668 69.7372635,86.4656412 69.7372635,86.1646085 C69.7372635,86.0140922 69.7742104,85.9010842 69.8115267,85.7508362 C69.9227896,85.4873119 70.2198423,85.1488245 70.4796315,85.0360849 C70.6654743,84.9608535 71.1107895,84.9230769 71.5933683,84.9230769 Z M102.306064,77.5384615 L102.422282,77.5384615 C102.493192,77.5384615 102.578401,77.547691 102.660771,77.5566022 C102.902634,77.5827523 103.132447,77.5716133 103.349781,77.5559657 C103.473873,77.5469484 103.591109,77.5384615 103.698383,77.5384615 C104.15817,77.5384615 104.559043,77.5669986 104.946742,77.5945809 C105.338618,77.6224284 105.743884,77.6512306 106.212453,77.6512306 C106.506963,77.6512306 106.764786,77.6320291 107.014094,77.6134111 C107.259117,77.5950583 107.512387,77.576122 107.798006,77.576122 C108.244886,77.576122 108.994522,77.7170037 108.994522,78.6603708 C108.994522,78.9037314 108.974545,79.1120837 108.955211,79.3136465 C108.936466,79.5087911 108.917132,79.7105661 108.917132,79.9370061 C108.917132,80.2623709 108.94691,80.5328364 108.975724,80.7942845 C109.003894,81.0496859 109.033029,81.3137862 109.033029,81.6266329 C109.033029,82.0301829 108.940965,82.1569023 108.773814,82.38679 C108.740448,82.4327251 108.704725,82.4818428 108.667075,82.536689 C108.598576,82.6363036 108.531897,82.7009097 108.441868,82.7601586 C108.403039,82.7790418 108.375886,82.7933104 108.354249,82.8047676 C108.30879,82.828743 108.295893,82.835541 108.226358,82.8501197 L108.162194,82.8629026 L108.136647,82.8709121 C107.734006,83.0486586 107.448601,83.0486586 107.295267,83.0486586 C107.085806,83.0486586 106.910461,83.039164 106.740846,83.0299876 C106.568125,83.020652 106.389512,83.0109452 106.173571,83.0109452 C105.84275,83.0109452 105.566449,83.0205459 105.299254,83.0298815 C105.034093,83.0391109 104.759935,83.0486586 104.433238,83.0486586 C103.959152,83.0486586 103.846254,83.0327988 103.621315,83.0011322 C103.499741,82.9839994 103.346407,82.962464 103.098867,82.9373748 C102.625156,82.8607278 102.152302,82.8607278 101.996933,82.8607278 C99.8544411,82.8607278 99.0938255,83.1620642 99.0938255,84.8556163 C99.0938255,84.9761297 99.0929686,85.0922404 99.0921652,85.2039487 C99.0852028,86.1743676 99.0801685,86.8754879 99.6887895,87.2817431 C99.7093018,87.2950569 99.7285823,87.3083175 99.7474879,87.3214191 C99.8215251,87.3724252 99.8975845,87.424823 100.019979,87.4620735 L100.121155,87.4869129 L100.203686,87.500704 C100.515548,87.5532694 101.24585,87.6764349 101.919543,87.6764349 C102.311526,87.6764349 102.638545,87.6475266 102.954799,87.619573 C103.265911,87.5920437 103.587628,87.5636128 103.969007,87.5636128 C104.269943,87.5636128 104.519465,87.5995228 104.783661,87.6375015 C104.978595,87.6655479 105.17847,87.6943104 105.396299,87.7069387 L105.620595,87.7135649 C105.939634,87.7355247 106.271312,87.7075711 106.592065,87.6804662 C106.835481,87.6599386 107.087199,87.6387215 107.333828,87.6387215 C107.431302,87.6387215 107.522081,87.6375545 107.606969,87.6364406 C108.194863,87.6286964 108.43828,87.6255668 108.709438,88.0056719 C108.930575,88.2918911 108.994522,88.4528231 108.994522,88.7228642 C108.994522,88.7750053 108.974117,89.0520481 108.956122,89.2964165 C108.933039,89.610218 108.918578,89.8104017 108.917239,89.8777661 C108.89587,90.022467 108.880553,90.1147085 108.86952,90.180906 C108.839796,90.3600317 108.839796,90.3652299 108.839796,90.6378701 C108.839796,91.0352672 108.849383,91.2155068 108.855113,91.3231837 C108.861955,91.4521177 108.86281,91.4682344 108.828689,91.6810045 L108.811839,91.7851339 L108.763638,92.0853034 C108.752338,92.1624277 108.744304,92.223533 108.737663,92.274242 C108.722185,92.3922623 108.715115,92.4462069 108.695299,92.5050314 C108.473547,92.9973752 108.026902,93.2275605 107.217845,93.2579322 L107.024644,93.2614225 L105.013367,93.2614225 C104.862765,93.2614225 104.733264,93.2524582 104.596212,93.2430165 C104.461141,93.233681 104.322,93.2240803 104.146226,93.2251411 C103.883744,93.2614225 103.612585,93.2614225 103.350424,93.2614225 C103.186058,93.2614225 103.021584,93.234848 102.847578,93.2067353 C102.671697,93.1783043 102.489871,93.1489186 102.306064,93.1489186 C102.052244,93.1489186 101.849246,93.1623152 101.642438,93.1806722 L101.432336,93.2003701 L101.184688,93.2240273 L100.72051,93.2240273 C100.511049,93.2240273 99.9446846,93.3402441 99.6908247,93.5045708 C99.1647349,93.8295113 99.0938255,94.5154084 99.0938255,95.1434357 C99.0938255,95.593186 99.1179261,96.3419389 99.1281555,96.6616281 C99.1300032,96.7188348 99.1313689,96.7605265 99.1319814,96.7816235 L99.1323329,96.7956674 L99.1335647,96.8126411 C99.3040365,97.9709908 100.081362,98.1598764 100.499052,98.2614004 C101.006719,98.3845659 101.68973,98.4523546 102.422282,98.4523546 C102.694994,98.4523546 102.971294,98.44286 103.23849,98.4336305 C103.696777,98.4178237 104.177182,98.4118299 104.63081,98.434267 C104.818473,98.4436026 104.995747,98.4523546 105.168093,98.4523546 C105.345955,98.4523546 105.495379,98.4427539 105.639822,98.4334714 C105.786997,98.4239237 105.926031,98.4149594 106.096235,98.4149594 C106.445694,98.4149594 106.721619,98.4149594 107.063152,98.377246 C107.263883,98.377246 107.424875,98.3577262 107.580565,98.3388429 C107.735934,98.3199597 107.88268,98.3021373 108.068683,98.3021373 C108.495425,98.3021373 109.055952,98.51346 109.164137,98.5835296 C109.248628,98.6381425 109.328698,98.7127844 109.370618,98.766148 L109.394378,98.8015357 L109.407982,98.8221693 C109.679997,99.1526263 109.806713,99.8471693 109.806713,100.212582 C109.806713,100.886809 109.844203,101.091077 109.891601,101.349714 C109.913345,101.468212 109.937928,101.602516 109.962403,101.804185 C110,102.0973 110,102.505359 110,102.8033 C110,103.357863 109.85786,103.924891 108.803484,103.924891 C108.561943,103.924891 108.359069,103.907387 108.144306,103.888928 C107.921991,103.869833 107.692124,103.850048 107.411165,103.850048 C107.164749,103.850048 106.962518,103.873546 106.728421,103.900757 C106.659654,103.908713 106.587191,103.917147 106.521584,103.924891 C106.362895,103.924891 106.223165,103.934598 106.088094,103.943987 C105.950988,103.953587 105.821434,103.962605 105.670832,103.962605 C105.321801,103.962605 105.027667,103.943244 104.743172,103.924467 C104.466872,103.906273 104.181146,103.887496 103.853163,103.887496 C103.191913,103.887496 102.66954,103.90514 102.116104,103.928058 L101.778956,103.942342 L101.300586,103.962605 C101.098515,103.962605 100.928311,103.972577 100.763624,103.982231 C100.608041,103.991354 100.460973,104 100.295108,104 C99.9936088,104 99.7431431,103.984127 99.4846941,103.962428 L99.2213981,103.93916 L99.0575139,103.924891 L97.7425303,103.924891 C97.5918747,103.924891 97.4623204,103.915927 97.3252146,103.906432 C97.190144,103.89715 96.4201559,103.897044 96.2096772,103.906273 C96.0017156,103.91545 95.786738,103.924891 95.5380196,103.924891 C95.4722516,103.924891 95.4159633,103.920224 95.3640131,103.916033 C95.2981738,103.910658 95.2346909,103.905519 95.1667093,103.909935 L95.0605059,103.924891 L94.3778156,103.924891 C93.8744339,103.924891 93.4804155,103.792443 93.2615819,103.545051 C93.2333038,103.51784 93.0448904,103.187967 93.0448904,103.187967 C92.8926281,102.966195 92.7559508,102.729677 92.7559508,102.277487 C92.7559508,101.988774 92.7412226,101.673488 92.7818188,101.349555 C92.7818188,101.012255 92.7971361,100.682435 92.7621634,100.37362 C92.7456678,100.228176 92.7193178,99.8997348 92.7193178,99.8997348 C92.7193178,99.7845258 92.7219957,99.657276 92.7263873,99.5594119 C92.7349029,99.3695185 92.7428829,99.1901276 92.7173898,98.9733945 C92.7173898,98.8370744 92.7073747,98.7200089 92.6975737,98.6069215 C92.6910755,98.5313531 92.6847915,98.4585901 92.6813242,98.3809629 L92.678561,98.2599152 L92.678561,95.3314196 C92.678561,95.169745 92.696931,95.027378 92.7163187,94.8766302 C92.7358134,94.725405 92.7559508,94.5689817 92.7559508,94.3926673 C92.7559508,94.1197618 92.735492,93.8867976 92.7157295,93.6614716 C92.7030187,93.5162756 92.6907363,93.3764311 92.6839603,93.2298678 L92.678561,93.0034751 L92.678561,92.6279317 C92.678561,92.3590443 92.673048,92.1141753 92.6662697,91.8796745 L92.6522461,91.4179547 C92.6477574,91.262579 92.6438109,91.1027078 92.6416787,90.9345222 L92.64,90.6755306 L92.64,89.1358558 C92.64,88.886939 92.64,88.6772872 92.6559516,88.4482937 L92.6778112,88.2106825 L92.6955385,88.0597756 C92.7279941,87.7869762 92.7559508,87.5513599 92.7557365,87.2656711 C92.7781769,86.8971825 92.7495775,86.5836992 92.7219421,86.2805593 C92.7006265,86.0465343 92.678561,85.8046059 92.678561,85.5313291 C92.678561,85.1827315 92.6968775,84.884949 92.7163187,84.5696623 C92.7308995,84.3320436 92.7459022,84.0884277 92.7524922,83.8195701 L92.7559508,83.5415858 L92.7559508,82.6486625 C92.7947795,82.3811674 92.7947795,82.1530301 92.7947795,81.8893541 C92.7947795,81.5268593 92.7649484,81.2280159 92.7360812,80.9390385 C92.7078031,80.6557367 92.678561,80.3627279 92.678561,80.0117965 C92.678561,78.8979497 92.8159881,78.3885262 93.2304117,77.9852945 C93.3760866,77.8157165 93.646442,77.6135702 94.1071924,77.6135702 C94.3709068,77.6135702 94.5938643,77.6224284 94.8298897,77.63187 C95.0698783,77.6414177 95.3180077,77.6512306 95.6154093,77.6512306 C96.024745,77.6512306 96.380256,77.6320821 96.7240915,77.6135702 C97.0647673,77.5951644 97.4170112,77.576122 97.8199201,77.576122 C98.1641306,77.576122 98.4669415,77.5951113 98.7597373,77.6134641 C99.0563356,77.6320821 99.3630562,77.6512306 99.7149788,77.6512306 C99.9498796,77.6512306 100.157788,77.6416299 100.35884,77.6322943 C100.490983,77.6261767 100.626101,77.6198941 100.7694,77.6163854 L100.991134,77.6135702 L101.532701,77.6135702 C101.732094,77.6135702 101.88449,77.5986221 102.037248,77.5781243 L102.19188,77.5561248 L102.306064,77.5384615 L102.422282,77.5384615 Z M86.3347441,74.4615385 C86.9130388,74.4615385 87.4349636,74.4980445 87.6034133,74.5271862 L87.640367,74.5349184 L87.6748215,74.5416471 C89.7083678,74.7845161 90.4251885,75.0693466 90.6685073,75.2655386 C90.8346291,75.3994238 90.8789352,75.6930494 90.8789352,75.8454783 C90.8789352,75.9688732 90.8619946,76.0784927 90.8440637,76.194576 C90.8239956,76.3246465 90.8031978,76.4590615 90.8031978,76.6216629 C90.8031978,76.7732971 90.8131536,76.9230239 90.8227447,77.0678764 L90.8354566,77.2769761 L90.8410926,77.4799165 L90.8410926,78.215729 C90.8410926,78.4722143 90.8511527,78.6843008 90.8609,78.8893937 C90.8702303,79.08442 90.8789352,79.268638 90.8789352,79.4824729 C90.8789352,79.6326448 90.8563839,79.8202854 90.8070913,79.954439 L90.7650424,80.0436041 L90.7540441,80.0632604 C90.544815,80.4805987 89.8774086,80.6210537 89.6050564,80.6210537 C89.4494116,80.6210537 89.3083617,80.5778734 89.1450025,80.5278585 C89.0047867,80.4848902 88.8598797,80.4405444 88.6919334,80.4196165 C88.4302668,80.3719329 86.4706335,80.1715553 86.2586418,80.1715553 C86.2388344,80.1715553 86.2205907,80.169489 86.2019821,80.1677407 C86.1103988,80.1591046 85.9852992,80.1471307 85.7676259,80.2232657 C85.5285814,80.2900228 84.6432411,80.6207358 84.3107888,81.132117 C84.0118529,81.5452167 83.9966845,82.1795689 83.9966845,82.3025928 C83.9966845,83.2244777 84.6160319,84.095129 84.9081395,84.3626875 C85.048668,84.5120434 85.249088,84.6708301 85.4262603,84.8112322 C85.4803659,84.8540769 85.532039,84.8949906 85.5782834,84.9327962 L85.6432039,84.987026 L85.6663473,85.004669 C85.8080226,85.0999305 85.9233228,85.1951919 86.0452949,85.2960694 C86.169352,85.3986423 86.297527,85.5045531 86.4559865,85.6116295 C86.6041774,85.7308917 87.2749198,86.3517335 87.4112262,86.4688764 C87.5444052,86.5760588 87.6035148,86.6431868 87.7044284,86.7072949 C87.7391435,86.7293354 87.8634613,86.8536839 87.8955181,86.8706381 C88.0379976,86.9746794 88.0511139,86.9879465 88.1773451,87.1466947 L88.2510095,87.2392861 L88.3009451,87.3108646 L88.3228896,87.3380443 C88.5772067,87.6114308 88.8252166,87.8263253 89.0062984,87.9833107 C89.0705682,88.0389814 89.1282704,88.0889897 89.1662768,88.1247301 L89.1972316,88.1553959 L89.2109925,88.1691181 C89.3753943,88.3206464 89.4768813,88.4373125 89.5944229,88.5723633 C89.637061,88.6214245 89.6809269,88.671828 89.7292949,88.7256615 L89.8056327,88.8092453 L89.8257529,88.8285837 C90.0030295,88.9809066 90.1092599,89.0948177 90.2619335,89.2586377 C90.3484757,89.3518707 90.4637013,89.5025576 90.4951194,89.5437083 L90.5033236,89.5543826 L90.6024463,89.7067576 C90.7260281,89.901753 90.8207535,90.0721851 90.9522749,90.3189112 C91.6604429,91.5205934 92.02,92.5637538 92.02,94.9305606 C92.02,95.9654558 91.9346716,96.7500116 91.7621905,97.2764396 C91.715591,97.4516507 91.6515817,97.5758402 91.5775123,97.7196861 C91.5434226,97.7858604 91.5083947,97.8539951 91.473419,97.9292824 C91.38366,98.1219245 91.3362785,98.2921554 91.2904608,98.4568231 L91.2646264,98.5488923 L91.2365637,98.644061 L91.2315597,98.655876 C91.1070465,98.9499785 91.0914824,98.9867413 90.9119709,99.2279733 L90.8242041,99.3452233 L90.65631,99.5700255 C90.1119399,100.374873 89.880341,100.675627 89.2173842,101.27248 L89.0253239,101.4432 L89.007445,101.460578 C88.8653528,101.613325 88.7049647,101.761621 88.5174716,101.913573 C88.3181462,102.023617 86.5312547,103.001132 85.6329874,103.186781 C85.1212779,103.306308 84.6813443,103.308057 84.2156089,103.310017 C83.9129721,103.311235 83.6001188,103.312507 83.2435849,103.343925 C83.1223426,103.344561 83.0135059,103.355157 82.9081616,103.36533 C82.8065703,103.375238 82.7106085,103.384615 82.6082353,103.384615 C82.4869929,103.384615 82.3911353,103.375238 82.2895962,103.365383 C82.2209999,103.358707 82.1509209,103.35189 82.072085,103.347773 L81.9463541,103.343978 L81.8856808,103.332958 C81.690369,103.297089 81.5057429,103.263234 81.2878611,103.262174 C81.0455327,103.241935 80.8305178,103.221855 80.6155028,103.201775 C80.3993932,103.181536 80.1832315,103.161403 79.9398085,103.141058 C79.8224755,103.120554 79.7248457,103.110169 79.6302913,103.099997 C79.5450672,103.090884 79.459843,103.081877 79.35919,103.064552 C79.0257764,102.955433 78.660362,102.791725 78.5294964,102.718142 L78.491937,102.695056 L78.4649884,102.678208 C77.9121524,102.381138 77.9121524,102.245929 77.9121524,101.919295 C77.9121524,101.716693 77.9219519,101.542329 77.9314386,101.373688 C77.9405604,101.211033 77.9500472,101.042869 77.9500472,100.856479 C77.9500472,100.599993 77.9399349,100.387907 77.9301876,100.182814 C77.9210136,99.9903308 77.9124131,99.808391 77.9121524,99.5981589 C77.926174,99.3893043 77.9455123,99.2068876 77.964173,99.030458 C77.9960213,98.7297858 78.0260973,98.4458558 78.0260973,98.0777377 C78.0260973,97.8358224 78.0260973,97.8263916 78.0099907,97.6733799 C78.0058859,97.6346767 78.0006669,97.5850955 77.9939819,97.5163664 L77.9867952,97.4409484 L77.9836677,97.4182721 C77.9500472,97.2367562 77.9500472,97.2077751 77.9500472,97.1376801 C77.9500472,97.0549091 77.9674634,96.9807808 77.9843298,96.9327743 L78.0003477,96.8941223 L78.0342809,96.8760025 L78.0699864,96.8120533 C78.2053256,96.5696554 78.4602663,96.5051299 78.8530762,96.4634567 L79.0068782,96.4485977 L79.5284915,96.4485977 C79.9271943,96.4485977 80.3882906,96.5154078 80.8625745,96.6419285 C80.9714111,96.6811881 81.0667996,96.7204477 81.1561416,96.7571641 C81.4053132,96.8595705 81.6254183,96.9500268 81.9451636,96.9737816 L82.1139355,96.979847 L83.0646925,96.979847 C83.0850212,96.979847 83.1125431,96.9808537 83.14632,96.9820193 C83.5260494,96.9950528 84.5346128,97.0300209 85.2217224,96.3549257 C85.6446112,95.9394417 85.859105,95.3365078 85.859105,94.5628133 C85.859105,94.3107255 85.859105,94.0249942 85.65243,93.4915196 C85.362251,92.7290042 85.1073085,92.4971025 84.644492,92.0760025 C84.5532475,91.9929932 84.4525326,91.9014007 84.3399942,91.7951232 L84.2234276,91.6837246 L84.1519123,91.6145303 C84.1043744,91.5757476 84.0504774,91.5193748 84.0039821,91.4707374 C83.8285819,91.2874201 83.6103353,91.0592271 83.4351437,90.924918 C83.2660507,90.8038015 83.1185374,90.7221564 82.9758718,90.6431604 C82.8203834,90.5571178 82.6857449,90.4826252 82.5410464,90.3669658 C82.4278833,90.2602073 82.3295759,90.1577933 82.2345002,90.0586642 C82.0784384,89.8960098 81.9310294,89.7424683 81.7474979,89.5951786 C81.6762953,89.5296401 81.61312,89.4727905 81.5545317,89.4199146 C81.4373681,89.3143746 81.3387056,89.2254644 81.2290553,89.1149177 L81.1146502,88.9957416 L81.0946864,88.9765621 C81.0098272,88.9036591 80.940449,88.8291135 80.866953,88.7501175 C80.7904338,88.6679426 80.7113604,88.5830657 80.6112285,88.4956985 C80.4563135,88.3297063 80.3139085,88.190258 80.1761947,88.0552601 C79.9732727,87.856525 79.7816618,87.6687572 79.5628938,87.4099937 C79.1940237,86.9777498 78.957559,86.5227119 78.9004746,86.3844971 L78.8893888,86.3549124 L78.8439881,86.2616113 C78.4489513,85.5432546 78.4226156,85.4953642 78.2028177,84.6298714 L78.1525521,84.4313521 L78.0978211,84.2172522 C78.0860408,84.1544157 78.0612816,84.0589953 78.0294854,83.9384615 C77.9572925,83.665128 77.8482473,83.2520812 77.7965395,82.8077221 C77.7691349,82.5414484 77.7622837,82.3406205 77.7605709,82.1044546 L77.7607066,81.5837743 C77.76842,80.2172646 77.8425101,79.8188486 78.1394984,79.0006547 L78.2019144,78.8310076 L78.215936,78.7904235 C78.6018682,77.6722408 79.2217889,76.7758402 80.0562033,76.1279777 C80.5676522,75.7400973 81.3188232,75.4263916 81.6016004,75.3082949 C81.6730115,75.2784661 81.7198196,75.2579092 81.7213833,75.2565317 C81.856126,75.1945429 82.56763,74.8767045 83.3356895,74.7030299 C83.7354453,74.6314266 85.4315574,74.4831169 86.0333601,74.4636605 L86.1446969,74.4615385 L86.3347441,74.4615385 Z M55.9518157,83.31965 L55.876429,83.31965 C55.6505907,83.31965 55.4619366,83.4317537 55.273604,83.5063657 C54.7837248,83.6927103 54.7837248,83.8419874 54.5950707,84.2522212 C54.4067381,84.737067 54.331405,84.8862911 54.331405,85.37119 C54.331405,86.0426985 54.4067381,86.5275973 54.4067381,87.1988407 C54.4067381,87.8329637 54.331405,88.2806361 54.331405,88.9518794 C54.331405,89.5488289 54.4067381,89.9962362 54.444619,90.5931857 C54.444619,90.8541953 54.444619,91.0780315 54.4821783,91.3390411 C54.5196841,91.4882652 54.5575649,91.5628773 54.5950707,91.6374893 C54.7083382,91.8613255 54.9344981,92.0477761 55.16039,92.1223882 C55.273604,92.1595086 56.1404698,92.2341207 56.291243,92.2341207 C56.4417484,92.1970002 57.2710549,92.0848965 57.4218281,92.0106027 C57.5723334,91.9731111 57.6855474,91.898499 57.8363206,91.8238869 C58.0246532,91.7492749 58.1754265,91.7121014 58.3637591,91.6000508 C58.5524132,91.4511448 58.6277998,91.3764797 58.9290785,91.1152049 C59.6075581,90.5185736 59.5321714,90.7424098 60.0974908,89.7352265 C60.7003159,88.6908698 60.8889164,88.3924215 61.0397433,87.3480649 C61.0772491,87.0124431 61.0772491,86.7886069 61.0772491,86.6393828 C61.0772491,85.8188623 60.6627566,84.6252815 59.6829983,84.028385 C59.2306249,83.7298837 58.7782516,83.6555898 58.6277998,83.6181513 C58.4770266,83.5809778 58.2508131,83.4317537 57.87388,83.4317537 C57.6855474,83.4317537 57.5347741,83.4688741 57.3840009,83.4317537 C57.1956683,83.4317537 57.0824008,83.394262 56.8940681,83.394262 L56.4795756,83.394262 C56.291243,83.3570885 56.1404698,83.31965 55.9518157,83.31965 Z M72.4605108,76.3268449 C72.6113448,76.3438232 73.2307351,76.4557022 73.4203402,76.5432665 C73.5726433,76.613538 73.7277269,76.6812418 73.8760427,76.7594261 C74.0296574,76.8403354 74.1706282,76.9328255 74.3300139,77.0021538 C74.5082867,77.0797092 74.6145789,77.1720946 74.763157,77.3000087 C75.2456162,77.715402 75.7483265,78.2693471 75.8448603,78.9196077 C75.8697807,79.0874524 75.8844707,79.2553495 75.9,79.4243994 C75.8932321,79.5979559 75.8897695,79.761294 75.8531496,79.9308156 C75.8140639,80.1119181 75.7432375,80.2541904 75.6760835,80.4265941 C75.622098,80.5652507 75.6026864,80.7148069 75.5297089,80.8445028 C75.4365852,81.0099893 75.3183313,81.1571351 75.1993953,81.3041761 C74.991323,81.5612095 74.7455291,81.7773692 74.5367747,82.0317301 C74.4299579,82.1618451 74.3061953,82.2802744 74.1633882,82.3722929 C74.0320182,82.4569751 73.4774211,82.7792494 73.2639449,82.8539751 C73.1269088,82.9019233 72.9962734,82.9822561 72.8550927,83.0110773 C72.5235725,83.078886 72.164089,83.0997945 71.8315195,83.0478114 C71.6274869,83.0159508 71.46254,82.9718804 71.2747712,82.889766 C71.1367909,82.8294509 70.9632923,82.7902539 70.8408937,82.706515 C70.6957782,82.607265 70.5778391,82.4511584 70.434245,82.3434192 C70.3059705,82.2471561 70.1476866,82.1398885 70.0498936,82.0133893 C69.9541992,81.8896674 69.8996366,81.7214034 69.8148023,81.5871487 C69.7145435,81.4285268 69.5847475,81.2856256 69.4885809,81.1261653 C69.3146102,80.8378476 69.2433641,80.46097 69.1754756,80.1346083 C69.1043869,79.7928926 69.0496669,79.4311593 69.0988257,79.0837842 C69.1232739,78.9108565 69.1707014,78.737824 69.2102068,78.5675164 C69.2529125,78.3835842 69.3425211,78.2655741 69.4244174,78.096105 C69.5119275,77.9149501 69.5504885,77.777918 69.6841144,77.6263704 C69.7945512,77.5011812 69.8821137,77.347328 69.9988461,77.2303135 C70.2379246,76.9905729 70.5795704,76.8059594 70.8725296,76.6409969 C71.0645479,76.5328908 71.7274834,76.3419367 71.8908039,76.3220239 C72.0783628,76.2991764 72.2731617,76.3057791 72.4605108,76.3268449 Z M64.0502046,48 C64.172513,48 64.2740903,48.0095298 64.3637174,48.0179478 L64.4708737,48.0272194 L64.5748735,48.0311306 L64.6522386,48.0366367 C64.7889003,48.0560934 64.883301,48.0609575 65.0119182,48.0621736 L66.3144177,48.0625789 C66.9064238,48.0625789 67.3945146,48.596988 67.4481869,48.6579787 C67.7020523,48.944984 67.84,49.2055707 67.84,49.7573452 C67.84,50.014014 67.84,50.2176337 67.8107997,50.5197808 C67.7534385,51.6251299 67.7273037,52.4134549 67.7015846,53.3991522 C67.7017925,53.7368772 67.7017925,53.9698275 67.6724364,54.3367771 C67.656953,54.5289081 67.6615252,54.6725961 67.6673965,54.8544562 C67.6707737,54.9601838 67.6743069,55.0707293 67.6743069,55.1972107 C67.6743069,55.3289335 67.6674484,55.4605505 67.6601743,55.5960852 C67.6531601,55.7264314 67.6465614,55.8495245 67.6465614,55.9789178 C67.6465614,56.0874514 67.6526925,56.1828022 67.6586676,56.2810649 C67.6635516,56.3604091 67.6688744,56.4468831 67.6718802,56.5438751 L67.6743069,56.6976753 L67.6743069,57.4884356 L67.6906216,57.7004204 C67.7115086,57.9630718 67.7295379,58.1899336 67.7295379,58.4797449 C67.7295379,58.5949494 67.7260567,58.6981358 67.7226795,58.7976691 C67.7187654,58.911603 67.7154285,59.0095362 67.718088,59.1123167 L67.7272518,59.2727289 L67.7295379,59.3239779 C67.7295379,59.5007025 67.7416441,59.6556144 67.7545815,59.8197385 C67.7693894,60.0085341 67.784769,60.2037888 67.784769,60.4494984 C67.784769,60.6749307 67.7698571,60.8688618 67.7554648,61.0564927 C67.7421117,61.2300407 67.7295379,61.3938471 67.7295379,61.5750188 C67.7295379,61.7992335 67.7359807,61.9840583 67.742891,62.1797895 C67.7498534,62.3768443 67.7570235,62.5806758 67.7570235,62.8253265 C67.7570235,63.1469038 67.742943,63.4692753 67.7293301,63.781058 C67.7159769,64.0877053 67.7021562,64.4047295 67.7017925,64.7202712 C67.7104175,64.922938 67.7216923,65.1285166 67.733123,65.33616 C67.7500266,65.6454544 67.7673458,65.9617609 67.7770138,66.2818636 L67.784769,66.7644629 L67.784769,70.0622977 C67.784769,70.186026 67.7867953,70.2993245 67.7886658,70.4049463 C67.795925,70.8127303 67.8023826,71.1728266 67.6770942,71.5751872 L67.602865,71.780306 L67.5666505,71.8680859 L67.5444126,71.8935516 C67.5073148,71.9693133 67.4477713,72.0894945 67.3577285,72.1986106 C67.1356093,72.4924985 66.7454589,72.6558284 66.2535752,72.6605404 C65.9857332,72.6791234 65.7246457,72.6429633 65.4935378,72.6108796 C65.3309621,72.5883258 65.1774271,72.5670426 65.0443114,72.5670426 C64.8349738,72.5670426 64.6682773,72.5770489 64.4894226,72.5916116 L64.3044856,72.6074913 L64.041008,72.6364512 C63.9389111,72.6569402 63.8342423,72.6779653 63.6992075,72.6871973 L63.5530212,72.6920416 L63.4649529,72.6849472 C63.4227633,72.6781705 63.2116071,72.6412161 63.0233643,72.5615365 C62.5953367,72.4109659 62.1104154,71.965978 62.1104154,71.1846415 C62.1104154,71.0873318 62.1174816,70.8693116 62.1246518,70.6512913 C62.1264183,70.5970244 62.1282369,70.5428635 62.1298995,70.4907673 C62.1221578,70.3083249 62.1268859,70.1481186 62.13177,69.9807121 C62.1338483,69.9107564 62.1359959,69.8383536 62.1371967,69.7607584 L62.1381608,69.6401282 L62.139148,69.6061916 C62.147881,69.4575693 62.1618045,68.9738191 62.1650204,67.4057898 L62.1656984,66.7019369 C62.1656984,66.55719 62.1737518,66.438809 62.180922,66.334299 C62.1876245,66.2358246 62.1933918,66.1507977 62.1933918,66.0455994 C62.1933918,65.826891 62.1650229,65.6376718 62.1322376,65.4184338 C62.096127,65.1777009 62.0551843,64.9048314 62.0551843,64.5762656 C62.0551843,64.4047295 62.0626662,64.2619945 62.0698883,64.1239185 C62.0743567,64.0379739 62.0786634,63.955206 62.0810381,63.8677398 L62.0829297,63.7320326 L62.0827663,61.5584593 C62.0816162,61.4266007 62.0723758,61.1557944 61.9981348,60.8717737 C61.9817161,60.8261896 61.9652975,60.7836761 61.949918,60.7455041 C61.9445664,60.7322153 61.9344346,60.7218914 61.9212373,60.7168089 C61.8920891,60.7056908 61.8594596,60.6955257 61.829532,60.6879548 C61.8138407,60.684037 61.797578,60.6884842 61.7849003,60.6987552 C61.6346386,60.8204188 61.4021798,61.1884802 61.2964458,61.3558868 C61.2554513,61.4206364 61.2168467,61.4817329 61.1809439,61.5363703 C61.1393258,61.6073142 61.1050856,61.6677225 61.075158,61.720454 C60.9876612,61.8748894 60.9177261,61.9983001 60.8080434,62.1259992 C60.6866702,62.2850937 60.5891975,62.3881212 60.4948943,62.4879193 C60.4580043,62.5269914 60.4198154,62.5673341 60.3779894,62.6137124 C60.3651559,62.6337779 60.3538291,62.6520962 60.3433336,62.6689852 C60.2979226,62.7419938 60.2464845,62.8247971 60.1580005,62.9250186 C60.0932612,62.9981862 60.0426543,63.0640123 59.9915857,63.1347484 L59.912812,63.2460665 L59.8265103,63.3629122 C59.7437027,63.4565821 59.687111,63.5348256 59.624601,63.6349876 L59.5589281,63.7438389 L59.5498355,63.758716 C59.4712234,63.8833444 59.4026912,63.9782186 59.3363932,64.0699164 C59.2808504,64.146737 59.2250478,64.2235577 59.163322,64.3213968 C59.098323,64.4244773 59.0555098,64.5061158 59.0141514,64.5851601 C58.867215,64.8657063 58.7390354,65.0694849 58.3360514,65.3044999 C58.2215885,65.391168 57.9966636,65.5522743 57.6438188,65.5522743 C57.5358391,65.5522743 57.1888489,65.5384698 56.8631423,65.3779663 L56.7425084,65.3106414 L56.709827,65.2900994 C56.6603632,65.2589334 56.6155411,65.2209908 56.5765766,65.1774165 L56.5226753,65.1079746 L56.2942692,64.7673377 C56.153256,64.5744655 56.0630054,64.436919 55.9310329,64.2275814 C55.8955977,64.1743204 55.8589155,64.1106826 55.8209864,64.0440271 C55.7811348,63.9739832 55.7467389,63.9134161 55.6992495,63.8462841 C55.6650613,63.797841 55.5723168,63.7025961 55.5169299,63.6456822 C55.4625302,63.5897211 55.4092735,63.5349249 55.3639144,63.4751519 C55.1439254,63.2519962 54.854625,62.8914527 54.7202103,62.6717911 C54.6550034,62.5788228 54.5936413,62.4870721 54.533838,62.3974922 C54.3367105,62.1022806 54.1774081,61.8637713 53.9481188,61.7028238 C53.9168922,61.6809583 53.8738712,61.698006 53.866753,61.7359134 C53.8498148,61.8263404 53.826174,61.9810406 53.8103789,62.0437783 C53.7988962,62.0892036 53.7995197,62.1470177 53.7995197,62.1650713 C53.7995197,62.1910665 53.7941681,62.2330505 53.7995197,62.275405 C53.807729,62.3403135 53.8123533,62.3822975 53.8123533,62.4814072 C53.8123533,62.6439959 53.80404,62.7790542 53.7967659,62.8981235 C53.7907908,62.9964391 53.7846078,63.0918428 53.7846078,63.2005353 C53.7846078,63.4069081 53.8041959,63.5694968 53.8269014,63.757763 C53.840878,63.8740263 53.8522568,64.5546647 53.8376047,64.7207477 C53.8246153,64.8685123 53.8123533,65.0080177 53.8123533,65.170077 C53.8123533,65.3703084 53.8251868,65.5349089 53.8387997,65.7091452 C53.8528283,65.8881992 53.8673765,66.0733947 53.8673765,66.2954916 L53.8670432,66.422452 C53.866507,66.556075 53.8653724,66.7559466 53.8639992,66.9972543 C53.858924,67.9096274 53.8653965,69.9823612 53.867023,70.4666792 L53.8673765,70.5692292 C53.8673765,70.8059914 53.8808855,71.2163545 53.8940308,71.6130583 C53.9080594,72.0379807 53.9226075,72.4773567 53.9226075,72.7566853 C53.9226075,72.9740173 53.8967326,73.1547656 53.8738712,73.3142306 C53.855634,73.4418768 53.8398389,73.5521047 53.8398389,73.6634443 C53.8398389,74.3431826 53.3832865,75.0769231 52.6456948,75.0769231 C52.5473908,75.0769231 52.4654535,75.0671815 52.3931803,75.0585517 L52.3101129,75.0494918 L52.2314879,75.0457924 L52.1841025,75.0437277 C51.9805842,75.0260975 51.8048112,75.0317625 51.6012409,75.0382745 C51.4855311,75.0420335 51.3665999,75.0457924 51.2373811,75.0457924 C51.0307972,75.0457924 50.849257,75.0529398 50.6571693,75.0605636 C50.4540146,75.068611 50.2439496,75.0769231 49.9948124,75.0769231 C49.5704002,75.0769231 48.9728804,75.0204246 48.5203773,74.5631238 L48.4008018,74.4282095 L48.3721211,74.3887668 C48.2542356,74.2110628 48.1211142,73.9661928 48.0896759,73.6061689 L48.0827686,73.4446828 L48.0827686,73.1630777 C48.0827686,73.0644973 48.076222,72.9588756 48.070039,72.8532538 C48.0627649,72.7295784 48.055231,72.6018263 48.055231,72.4753449 C48.055231,72.1563089 48.0896271,71.7054442 48.1259455,71.2281079 C48.1590426,70.7935498 48.1932827,70.3440616 48.1932827,70.0690744 C48.1932827,69.5051229 48.0851067,66.121626 48.0564261,65.490119 C48.0362145,65.253092 48.0429171,65.0672083 48.0493598,64.887413 C48.0522175,64.8074687 48.055231,64.7264126 48.055231,64.6387916 C48.055231,64.3086375 48.0421377,64.0343385 48.028317,63.7439977 C48.0143923,63.4528628 48,63.1518805 48,62.7942489 C48,62.2296092 48.0286287,61.7519022 48.0563222,61.2899724 C48.0841715,60.8246542 48.1104621,60.3851194 48.1104621,59.8554751 C48.1104621,59.6279251 48.1038115,59.4502476 48.0966933,59.2621932 C48.0898868,59.0809684 48.0827686,58.8934964 48.0827686,58.6673758 C48.0827686,58.4183837 48.0901986,58.2133874 48.0973688,58.015115 C48.1039154,57.8337844 48.1104621,57.6555245 48.1104621,57.4482517 C48.1104621,57.4482517 48.1379997,57.0918906 48.1379997,56.9168074 C48.1379997,56.6975164 48.1455335,56.5154975 48.1528076,56.3394613 C48.1571374,56.234916 48.1614442,56.1317355 48.1638342,56.0226881 L48.1657451,55.8538129 L48.1657451,55.7912869 C48.1657451,55.5789315 48.141325,55.3920948 48.1153981,55.1942988 C48.0858341,54.9683371 48.055231,54.7348044 48.055231,54.4470579 C48.055231,54.2321612 48.0625051,54.051413 48.0694675,53.8765944 C48.0763778,53.7056407 48.0827686,53.5442167 48.0827686,53.3526151 C48.0827686,52.9999601 48.0758583,52.7015191 48.0691557,52.4128195 C48.0640509,52.1913315 48.0587707,51.9641851 48.0564496,51.7098937 L48.055231,51.4457582 L48.0453591,50.2974722 C48.0220301,50.0958643 48,49.9054804 48,49.6636886 C48,49.1206863 48.3338526,48.5575644 48.8097321,48.2738903 L48.9315498,48.208967 L48.9972763,48.1829189 C49.2502584,48.1010687 49.4503475,48.1154692 49.5577961,48.123093 C49.5577961,48.123093 49.6633742,48.1140927 49.7043688,48.1037688 L49.7588659,48.0901756 L49.8784271,48.0625789 L49.9395814,48.0625789 C50.1238754,48.0625789 50.28032,48.0812149 50.4184236,48.0975215 C50.5978336,48.1188046 50.7370283,48.1350582 50.9295836,48.1120809 C51.0019087,48.1034511 51.0837941,48.0936566 51.18215,48.0936566 C51.3212278,48.0936566 51.4134268,48.0936566 51.5140502,48.083494 L51.61953,48.0695674 L51.706819,48.0625789 C51.7613746,48.0625789 51.8187359,48.0565963 51.8851378,48.0498196 C51.9694652,48.041084 52.0651194,48.0311306 52.1762569,48.0311306 C52.6457987,48.0311306 53.1040657,48.3452429 53.3154297,48.570887 C53.4884489,48.7352758 53.5636317,48.901094 53.643127,49.0762303 C53.6661443,49.1270029 53.6923829,49.1849757 53.7256878,49.2529549 C53.7871538,49.3782186 53.8434759,49.4774342 53.9031234,49.5824736 C53.9682783,49.6970957 54.0356155,49.8156357 54.1120973,49.9713418 C54.2161167,50.187562 54.289429,50.3769929 54.3602993,50.5601765 C54.3956305,50.651486 54.4317469,50.7448661 54.4720969,50.8426386 L54.5362281,50.9928817 L54.5428267,51.0085529 C54.6400136,51.2473534 54.7252178,51.4243592 54.824962,51.6197099 L54.9305351,51.8241436 L55.0183957,51.9939326 C55.1486017,52.2394304 55.2330849,52.4362734 55.3225561,52.6446051 C55.3517044,52.7126901 55.3820996,52.7833693 55.4158721,52.8598723 C55.492146,53.0167431 55.5784998,53.1464012 55.6782586,53.2961776 C55.7576499,53.4152999 55.8472251,53.5497757 55.9373197,53.7083937 C56.0536531,53.8868125 56.1251988,54.0401361 56.1885352,54.1758297 C56.2229313,54.2494207 56.2577429,54.3248119 56.30305,54.407721 C56.4142915,54.5907458 56.518103,54.7524345 56.6186412,54.9090936 C56.7929593,55.1806395 56.9575094,55.4370966 57.1369194,55.762327 C57.1610797,55.8029344 57.2009313,55.8783256 57.2469658,55.9659996 C57.3192909,56.1040756 57.5168861,56.4811903 57.665641,56.6425614 C57.8607711,56.4677781 58.1797991,55.9875815 58.4307795,55.6001723 L58.5213325,55.460021 L58.5467399,55.4222195 C58.6642163,55.2596308 58.7617409,55.1124486 58.8649289,54.9567425 C58.9666621,54.8030482 59.0718245,54.6443774 59.1975102,54.4697176 C59.2945153,54.3137998 59.3848697,54.1798004 59.4752761,54.045854 C59.5587202,53.9222844 59.6423202,53.7987678 59.7318953,53.6544975 C59.8026617,53.5269043 59.8666736,53.4220237 59.9307894,53.3171431 C59.9694459,53.2539289 60.0081256,53.1908088 60.0486757,53.1211786 L60.1111346,53.0110253 L60.1283846,52.9818535 C60.1870448,52.8889911 60.2410289,52.8113763 60.2940258,52.7354027 C60.3418961,52.6668942 60.385379,52.6045741 60.4298778,52.5329752 L60.4980637,52.4166844 L60.5426434,52.34807 C60.6258796,52.2381068 60.6680693,52.1364029 60.7318734,51.9822321 L60.7676658,51.8964574 L60.8065366,51.8061958 L60.8296578,51.753782 L60.862599,51.707139 C60.9286199,51.613606 60.9820786,51.5350852 61.0305956,51.4549645 L61.1006172,51.3315067 L61.113243,51.3089529 C61.1633822,51.2237672 61.2008957,51.1526644 61.2384611,51.0818263 C61.2687005,51.0248594 61.2989399,50.9679395 61.3336438,50.9059685 L61.3896061,50.8085863 L61.4150133,50.7692494 C61.4494614,50.7204357 61.4814673,50.6771811 61.5117067,50.6363089 C61.5732246,50.5532939 61.6139075,50.4982859 61.652668,50.4250654 C61.7614674,50.2297577 61.8506268,50.0641513 61.9356296,49.9062745 C62.1241322,49.5561079 62.3021913,49.2253714 62.5596937,48.821838 C62.7093752,48.5848729 62.8656236,48.4245284 62.9868546,48.3223908 L63.0550585,48.2679458 L63.0776601,48.2517451 C63.3237838,48.0847621 63.6510135,48 64.0502046,48 Z M93.3298054,48 C93.6624655,48 93.9451523,48.0588626 94.1725737,48.1751171 L94.3023524,48.2517451 L94.3249021,48.2679458 C94.4515753,48.3634554 94.640598,48.5374269 94.821619,48.8239028 C95.0777193,49.2252655 95.2557269,49.5558961 95.444178,49.9059039 C95.529233,50.0639395 95.6184446,50.2296519 95.7211133,50.4136296 C95.7661608,50.4983918 95.8067918,50.5532939 95.8684138,50.6365207 C95.8986013,50.6773399 96.2166872,51.2238731 96.2667746,51.3089529 C96.2667746,51.3089529 96.3828533,51.5063973 96.4782165,51.6497481 L96.5174193,51.707139 L96.5503606,51.753835 L96.5734818,51.8061958 C96.6007597,51.8680865 96.624972,51.9263241 96.6481452,51.9822851 C96.7120014,52.1364029 96.7541912,52.2381598 96.8373757,52.34807 C96.8373757,52.34807 97.0142402,52.6326399 97.086046,52.7355086 C97.139043,52.8115351 97.3911425,53.2221629 97.4490754,53.3168784 C97.5132434,53.4218649 97.8213014,53.9223903 97.9047457,54.045854 C97.9952044,54.1798004 98.0855071,54.3137998 98.1825124,54.4697176 C98.3081465,54.6443774 98.4132053,54.8028894 98.5149387,54.9564778 C98.6181789,55.1122898 98.8501707,55.446944 98.8501707,55.446944 C99.1175459,55.8612778 99.4948118,56.4458242 99.7143856,56.6425614 C99.8631409,56.4812433 100.060685,56.1041286 100.13301,55.9660526 C100.178993,55.8783256 100.218896,55.8029344 100.251058,55.748297 C100.422519,55.4370966 100.587174,55.1804807 100.761492,54.9088289 C100.861979,54.7522757 100.965738,54.5906929 101.07698,54.407774 C101.122339,54.3248119 101.157099,54.2494207 101.191495,54.1758297 C101.254832,54.0401361 101.326378,53.8868125 101.442711,53.7083937 C101.532754,53.5498816 101.62233,53.4154587 101.701617,53.2963364 C101.801428,53.146507 101.887886,53.0167961 101.96416,52.8598723 C101.997881,52.7835282 102.028172,52.7128489 102.057373,52.6449227 C102.146844,52.4364322 102.449758,51.8236142 102.449758,51.8236142 C102.599501,51.5352323 102.843807,50.9928817 102.843807,50.9928817 C102.911975,50.8387639 102.966791,50.6970878 103.019788,50.5599648 C103.090658,50.3768341 103.163919,50.187509 103.265756,49.9756831 C103.344421,49.8155827 103.411758,49.6969899 103.476913,49.5824207 C103.536561,49.4773813 103.592883,49.3782186 103.654401,49.252849 C103.687602,49.1850816 103.713841,49.1271088 103.736806,49.0763891 C103.816302,48.9012529 103.891537,48.7352758 104.064556,48.570887 C104.275869,48.3453488 104.734241,48.0311306 105.203784,48.0311306 C105.314922,48.0311306 105.410576,48.041084 105.494956,48.0498196 C105.561306,48.0566493 105.760512,48.0695674 105.760512,48.0695674 C105.910359,48.0936566 106.012456,48.0936566 106.197894,48.0936566 C106.296198,48.0936566 106.378135,48.1034511 106.450409,48.1120809 C106.643017,48.1350053 106.782108,48.1188046 106.961622,48.0975215 C107.053657,48.0866504 107.153889,48.0747441 107.26509,48.0680144 L107.440466,48.0625789 L107.561371,48.0760265 C107.603301,48.0855563 107.640815,48.0949802 107.675627,48.1037688 C107.712113,48.1129456 108.042703,48.1036746 108.293286,48.1589872 L108.382773,48.1829189 L108.448448,48.208967 C108.988238,48.4635711 109.38,49.0753303 109.38,49.6636886 C109.38,49.8450324 109.367608,49.9974593 109.35157,50.1473921 L109.334641,50.2974722 L109.324769,50.384405 L109.324769,51.4457582 C109.324769,51.8121255 109.317703,52.1175021 109.310844,52.4128195 C109.304194,52.7015191 109.297283,52.9999601 109.297283,53.3526151 C109.297283,53.5442167 109.303674,53.7056936 109.310532,53.8765944 C109.317495,54.0514659 109.324769,54.2322671 109.324769,54.4470579 C109.324769,54.7348044 109.294166,54.9683371 109.264602,55.1942988 C109.238727,55.3920948 109.214306,55.5789315 109.214306,55.7912869 C109.214306,55.7912869 109.220749,56.1826434 109.227244,56.3394613 C109.234518,56.5154975 109.242052,56.6975694 109.242052,56.9168074 C109.242052,57.0918906 109.242052,57.2183191 109.263407,57.3640719 C109.263407,57.3640719 109.276084,57.8337844 109.282631,58.015115 C109.289801,58.2133874 109.297283,58.4183837 109.297283,58.6674287 C109.297283,58.8935494 109.290165,59.0809684 109.283358,59.262299 C109.27624,59.4503005 109.269538,59.627978 109.269538,59.8554751 C109.269538,60.3851194 109.295828,60.8246542 109.32373,61.2899724 C109.351371,61.7519022 109.38,62.2296092 109.38,62.7942489 C109.38,63.1518805 109.365608,63.4528628 109.351735,63.7439977 C109.337862,64.0343385 109.324769,64.3086375 109.324769,64.6387916 C109.324769,64.7264126 109.327782,64.8074687 109.33064,64.887413 C109.337135,65.0672083 109.343837,65.2528802 109.323626,65.4898542 C109.295672,66.1153257 109.186769,70.2523639 109.186769,70.8498284 C109.186769,71.1081385 109.217788,71.3400829 109.250625,71.5856866 C109.287099,71.8580796 109.324769,72.1397377 109.324769,72.4753449 C109.324769,72.6017204 109.317287,72.7295784 109.310013,72.8532009 L109.301329,73.0107997 L109.297283,73.1630777 L109.297283,73.4446828 C109.297283,73.8385871 109.178897,74.1104822 109.059044,74.3083558 L109.00793,74.3887668 L108.979249,74.4282095 C108.517292,75.0096852 107.848231,75.0769231 107.385234,75.0769231 C107.136096,75.0769231 106.926031,75.068611 106.722824,75.0605636 C106.530736,75.0529398 106.349247,75.0457924 106.142662,75.0457924 C106.013495,75.0457924 105.894512,75.0420335 105.77875,75.0382745 C105.643105,75.0339685 105.519746,75.0299448 105.392276,75.0329959 L105.195938,75.0437277 L105.148501,75.0457924 C105.094361,75.0457924 105.046923,75.0514044 104.98686,75.0585517 C104.914587,75.0671815 104.832701,75.0769231 104.734345,75.0769231 C103.996751,75.0769231 103.540198,74.3431826 103.540198,73.6634443 C103.540198,73.5521047 103.524403,73.4418768 103.506165,73.3142306 C103.483304,73.1547656 103.457429,72.9740173 103.457429,72.7566853 C103.457429,72.4689388 103.472445,72.2283647 103.486837,71.9956261 C103.495705,71.8525382 103.504226,71.7147681 103.508921,71.5711468 L103.51266,71.3499303 L103.513699,71.3159937 C103.534223,70.9658271 103.521233,68.2080134 103.515726,67.0303968 C103.514464,66.7696891 103.513441,66.5579539 103.512959,66.42147 L103.51266,66.2954916 C103.51266,66.0733947 103.527208,65.8881992 103.541237,65.7091452 C103.55485,65.5349089 103.567683,65.3703613 103.567683,65.170077 C103.567683,65.0080177 103.555421,64.8685123 103.542432,64.7207477 C103.532664,64.6100257 103.522688,64.496786 103.517123,64.3704713 L103.51266,64.1698732 L103.514583,64.1236008 C103.525026,63.9924604 103.539159,63.8740263 103.553187,63.757763 C103.575841,63.5694968 103.595429,63.406961 103.595429,63.2005882 C103.595429,63.0918428 103.589298,62.9964391 103.583271,62.8981235 C103.575997,62.7790542 103.567683,62.6439959 103.567683,62.4814602 C103.567683,62.3822975 103.577971,62.3015061 103.58618,62.2365977 C103.591584,62.1941901 103.583479,62.1689891 103.583479,62.143047 C103.583479,62.1249404 103.585557,62.0803092 103.574074,62.0348839 C103.553722,61.9541076 103.540164,61.7331074 103.522571,61.668479 L103.513388,61.6505689 L103.488032,61.6663989 C103.221436,61.8262875 103.061978,62.0744325 102.846093,62.397651 C102.786289,62.487178 102.725031,62.5788228 102.659824,62.6717382 C102.525409,62.8914527 102.236056,63.2519962 102.016066,63.4752578 C101.970759,63.5350308 101.917502,63.5897211 101.86305,63.6456822 C101.807611,63.7025961 101.714919,63.7979469 101.68099,63.8460194 C101.633241,63.913522 101.598793,63.9740361 101.558941,64.044186 C101.521064,64.1107886 101.484486,64.1742675 101.442296,64.2380641 C101.348109,64.3875626 101.273943,64.5020987 101.183256,64.6313464 L101.085709,64.7673377 L101.078955,64.7789852 C101.036245,64.8535823 100.981222,64.9494625 100.881775,65.0463487 L100.855088,65.0813044 L100.831168,65.1099865 L100.756088,65.2115846 L100.637573,65.3106414 C100.281661,65.534803 99.8576854,65.5522743 99.7362079,65.5522743 C99.3833622,65.5522743 99.1584366,65.3912739 99.0439735,65.3044999 C98.6410404,65.0694849 98.5128604,64.8657593 98.3658717,64.585213 C98.3245132,64.5061158 98.2816999,64.4244773 98.2167007,64.3214497 C98.1549228,64.2233988 98.0991201,64.146737 98.0435252,64.0697575 C97.999361,64.0086257 97.9542039,63.9461292 97.9057291,63.874346 L97.8302382,63.758716 L97.8211456,63.7438389 C97.7511194,63.6249152 97.6976645,63.5403582 97.6287562,63.4528008 L97.5535107,63.3628593 L97.5152178,63.3144162 L97.4672087,63.2460665 C97.3844399,63.1280031 97.3191288,63.03477 97.2223834,62.9254422 C97.1335874,62.824903 97.0822011,62.7421527 97.0368419,62.6691969 C97.0262425,62.6521492 97.0149157,62.6339367 97.0020301,62.6137654 C96.9601521,62.5673341 96.9219111,62.5268855 96.8850211,62.4878663 C96.7907175,62.3881212 96.6933486,62.2850407 96.571975,62.1261051 C96.46224,61.9982471 96.3922528,61.8747835 96.3046519,61.7201363 C96.2747762,61.6675636 96.2406398,61.6072084 96.1990735,61.5364232 C96.1631707,61.4817329 96.124566,61.4206364 96.0836232,61.3558868 C95.977837,61.1884273 95.7452737,60.8202599 95.5950116,60.6986493 C95.58223,60.6883783 95.5659152,60.6839311 95.55012,60.6879548 C95.520556,60.6954198 95.4880824,60.7055849 95.458986,60.716703 C95.4456848,60.7218385 95.4354491,60.7321624 95.4300974,60.745557 C95.4146659,60.783782 95.3982992,60.8261896 95.3818286,60.8717737 C95.3076782,61.1558407 95.2984094,61.4266123 95.2972508,61.5584615 L95.2970853,63.7320326 C95.2970853,63.8732322 95.3034242,63.9950017 95.3101268,64.1239714 C95.3173489,64.2619945 95.3248308,64.4047295 95.3248308,64.5762656 C95.3248308,64.9048314 95.283888,65.1777009 95.2478293,65.4184338 C95.2149919,65.6376718 95.186623,65.8269439 95.186623,66.0455994 C95.186623,66.1507977 95.1923903,66.2358246 95.1990928,66.334299 C95.206263,66.438809 95.2143685,66.55719 95.2143685,66.7019369 C95.2143685,67.0485034 95.2143685,67.3230009 95.2255256,67.6292668 L95.240815,67.9499681 L95.2418541,67.9839047 C95.2418541,68.0921207 95.2442442,68.2458678 95.2468421,68.4177216 C95.2526762,68.7972793 95.2591211,69.2190792 95.2486062,69.5058507 L95.2418541,69.6371634 L95.2418541,70.3218784 C95.2418541,70.3992814 95.2480891,70.4701195 95.2538564,70.5410105 C95.2612344,70.6324434 95.2695996,70.7362122 95.2695996,70.8533756 C95.2695996,71.6346061 94.784677,72.0796471 94.3567003,72.2303236 C94.1997876,72.2966791 94.0269989,72.3334011 93.949376,72.3477203 L93.9151105,72.3536813 L93.82699,72.3608287 C93.6685446,72.3608287 93.5497884,72.3448961 93.4429054,72.3254047 L93.3389499,72.3051853 L93.2810689,72.2936966 L93.0754717,72.2762253 C92.8180726,72.2536186 92.6148134,72.2357767 92.3356959,72.2357767 C92.2025799,72.2357767 92.0490445,72.2570599 91.8865203,72.2796137 C91.6554118,72.3118032 91.3942716,72.3480693 91.126429,72.3292745 C90.6344921,72.3246155 90.2443925,72.1612326 90.0222207,71.8673447 C89.9546886,71.7855077 89.9043122,71.6974167 89.867716,71.6265687 L89.8355882,71.5623386 L89.8133502,71.53682 L89.7771356,71.449093 C89.6047395,71.0311591 89.5805791,70.9450204 89.5906589,70.5494814 C89.5921397,70.4894437 89.5939712,70.4168387 89.5947944,70.3256133 L89.5952312,70.227957 L89.5952312,66.7644629 C89.5952312,66.2798204 89.6215219,65.8001017 89.6469292,65.3362129 C89.658308,65.1285166 89.6695829,64.922938 89.6782079,64.7202712 C89.6778442,64.4047295 89.6640753,64.0877053 89.6506702,63.781058 C89.6370573,63.4692753 89.6229767,63.1469038 89.6229767,62.8253265 C89.6229767,62.5806758 89.6301469,62.3768972 89.6371092,62.1797895 C89.6439677,61.9841113 89.6504624,61.7992335 89.6504624,61.5750188 C89.6504624,61.3939 89.6378886,61.2300407 89.6245874,61.0564927 C89.6101431,60.8688618 89.5952312,60.6749837 89.5952312,60.4494984 C89.5952312,60.2037888 89.6106107,60.008587 89.6254187,59.8197385 C89.6340437,59.7103577 89.6422992,59.6050242 89.6468446,59.4945924 L89.6504624,59.3239779 L89.6528005,59.2727289 C89.6677643,59.1034693 89.6631921,58.9685699 89.6573208,58.797722 C89.6539435,58.6981358 89.6504624,58.5949494 89.6504624,58.4797978 C89.6504624,58.2623997 89.6606039,58.0804404 89.6744864,57.892242 L89.6893788,57.7004204 L89.7057455,57.4884886 L89.7057455,56.6976753 C89.7057455,56.5351395 89.7140068,56.4000813 89.7213329,56.2810649 C89.727308,56.1828022 89.7334391,56.0874514 89.7334391,55.9789178 C89.7334391,55.8495245 89.7268404,55.7264314 89.7198781,55.5960852 C89.712552,55.4605505 89.7057455,55.3289335 89.7057455,55.1972107 C89.7057455,55.0707293 89.7092267,54.9601838 89.712604,54.8545091 C89.7184752,54.6725961 89.7230475,54.5289081 89.707616,54.3371477 C89.6782079,53.9698275 89.6782079,53.7368772 89.6782079,53.3841163 C89.6526966,52.4134019 89.6265618,51.6251299 89.5692003,50.5198338 C89.54,50.2176337 89.54,50.014014 89.54,49.7573452 C89.54,49.2055707 89.6779481,48.944984 89.9324376,48.6571845 C89.9813099,48.601814 90.4008699,48.1420198 90.930922,48.0716098 L91.0655863,48.0625789 L92.3680672,48.0621736 C92.4538269,48.0613629 92.5243694,48.0589308 92.6023614,48.0516346 L92.7277698,48.0366367 L92.805135,48.0311306 C92.8761614,48.0311306 92.9411087,48.0250951 93.0162917,48.0179478 C93.105919,48.0095298 93.2074966,48 93.3298054,48 Z M80.7215518,48 C80.8614287,48 81.0361842,48.0338818 81.1761128,48.0338818 C81.4207809,48.0338818 81.6655008,48 81.875342,48 C82.7144999,48 83.3089378,48.1014365 84.1483544,48.1014365 C84.6728798,48.1014365 85.0574765,48.0338818 85.5819502,48.0338818 C86.2811794,48.0338818 86.7708779,48.3712379 86.7708779,49.1140791 C86.7708779,49.5528718 86.7009135,49.8566071 86.7009135,50.261779 C86.7009135,50.8353679 86.8057048,51.2068668 86.8057048,51.780769 C86.8057048,52.2531824 86.6658279,52.3546189 86.4562454,52.6583543 C86.3862811,52.7594776 86.3163168,52.8270323 86.2112668,52.8945349 C86.0713381,52.9620374 86.1064756,52.9620374 85.93172,52.9957104 C85.5468645,53.1646495 85.2673177,53.1646495 85.1274408,53.1646495 C84.7428441,53.1646495 84.4978655,53.1307677 84.1132687,53.1307677 C83.518779,53.1307677 83.1341823,53.1646495 82.5397443,53.1646495 C81.875342,53.1646495 81.980392,53.1307677 81.3159897,53.0632129 C80.8963073,52.9957104 80.4765732,52.9957104 80.336955,52.9957104 C78.4136607,52.9957104 76.3693261,53.265825 76.3693261,54.6836394 C76.3693261,55.7299028 76.2993618,56.4051893 76.8587141,56.7764272 C76.9637641,56.8439819 77.0337284,56.9114845 77.208484,56.9451052 C77.4183251,56.9790393 79.6025884,57.1140966 80.2669906,57.1140966 C80.9662199,57.1140966 81.0549172,57.1477173 81.6145283,57.1477173 C82.1039163,57.1815991 82.6284417,57.0801625 83.1529153,57.0801625 C83.852455,57.0801625 84.1670874,57.01266 84.4817199,57.4514526 C84.6916128,57.7215672 84.7615772,57.8902453 84.7615772,58.1603599 C84.7615772,58.2617964 84.6916128,59.1054477 84.6916128,59.2068842 C84.6216485,59.6792977 84.6216485,59.5442926 84.6216485,59.8819097 C84.6216485,60.8945523 84.6916128,60.3207023 84.5516842,61.1982876 C84.5168573,61.4347815 84.5168573,61.502284 84.4817199,61.6034595 C84.2370518,62.1436887 83.7125781,62.3459875 82.8734203,62.3459875 L81.0549172,62.3459875 C80.7751117,62.3459875 80.5655293,62.3123668 80.2857237,62.3123668 C80.0410556,62.3459875 78.3461286,62.3459875 78.1014605,62.3459875 L77.7329576,62.3123668 C77.558202,62.3123668 77.0685553,62.4134901 76.8587141,62.5485474 C76.4741173,62.7847802 76.3693261,63.2575068 76.3693261,63.9324801 C76.3693261,64.4388274 76.404153,65.3842286 76.404153,65.4178493 C76.5440299,66.3629371 77.1385196,66.5316152 77.558202,66.6330517 C78.257483,66.8017298 80.5465374,66.8017298 80.7215518,66.8017298 C81.2109397,66.8017298 81.7005865,66.768109 82.1899745,66.768109 C82.5397443,66.768109 82.8895141,66.8017298 83.2041466,66.8017298 C83.518779,66.8017298 83.728672,66.768109 84.0433044,66.768109 C84.3582473,66.768109 84.6029154,66.768109 84.9175479,66.7342272 C85.2673177,66.7342272 85.4769002,66.6666725 85.82667,66.6666725 C86.2463525,66.6666725 86.7708779,66.8692845 86.8756691,66.9368393 C86.9807191,67.0043418 87.0855103,67.1055173 87.1206477,67.1730199 C87.4001945,67.510637 87.5052444,68.1856625 87.5052444,68.4896588 C87.5052444,69.3672441 87.5752088,69.3333623 87.6451213,69.9072123 C87.68,70.1773269 87.68,70.548617 87.68,70.8186794 C87.68,71.291406 87.5752088,71.9324975 86.4910723,71.9324975 C86.0365113,71.9324975 85.7218788,71.8652559 85.2322321,71.8652559 C84.9524266,71.8652559 84.7428441,71.8988767 84.4279012,71.9324975 C84.1483544,71.9324975 83.9385132,71.9663793 83.6587077,71.9663793 C83.029391,71.9663793 82.6097086,71.8988767 82.0152189,71.8988767 C81.1409754,71.8988767 79.0965891,71.9324975 78.257483,71.9663793 C77.9077131,71.9663793 77.6629932,72 77.3483608,72 C76.9286784,72 76.6139942,71.9663793 76.2293974,71.9324975 L75.0404698,71.9324975 C74.7606643,71.9324975 74.5508231,71.8988767 74.2712763,71.8988767 C73.816767,71.8988767 73.501824,71.9324975 73.0472629,71.9324975 C72.8725592,71.9324975 72.7677679,71.8988767 72.6278393,71.9324975 L71.9982639,71.9324975 C71.5088759,71.9324975 71.1242792,71.7977012 70.914438,71.5612596 C70.8793006,71.5276388 70.7745094,71.3925815 70.7045967,71.2238513 C70.5646681,71.0212914 70.4247912,70.7850586 70.4247912,70.3460049 C70.4247912,70.0761514 70.4598769,69.7721549 70.4947038,69.5023014 C70.4947038,69.0635088 70.4247912,68.6583891 70.3899126,68.253165 L70.3899126,68.1856625 C70.3899126,67.8819271 70.4247912,67.6793151 70.3899126,67.3755797 C70.3899126,67.1393991 70.3548269,66.9706689 70.3548269,66.7342272 L70.3548269,64.1014713 C70.3548269,63.7974228 70.4247912,63.5612422 70.4247912,63.2575068 C70.4247912,62.7847802 70.3548269,62.4474241 70.3548269,62.0086314 L70.3548269,61.6709621 C70.3548269,61.0296096 70.32,60.5571962 70.32,59.9157915 L70.32,58.53165 C70.32,58.2278624 70.32,57.9916818 70.3548269,57.6879465 C70.3899126,57.3839501 70.4247912,57.1477173 70.4247912,56.8439819 C70.4598769,56.270132 70.3548269,55.8649601 70.3548269,55.2911102 C70.3548269,54.6497055 70.4247912,54.1772921 70.4247912,53.5023188 L70.4247912,52.691975 C70.4598769,52.4557422 70.4598769,52.2531824 70.4598769,52.0169496 C70.4598769,51.3755449 70.3548269,50.9704252 70.3548269,50.3290205 C70.3548269,49.3838805 70.4598769,48.8439645 70.8793006,48.4387926 C71.0543149,48.2361806 71.3338616,48.0675548 71.7535958,48.0675548 C72.2432425,48.0675548 72.5927019,48.1014365 73.1172273,48.1014365 C73.8515938,48.1014365 74.3760675,48.0338818 75.1104341,48.0338818 C75.7397507,48.0338818 76.1945706,48.1014365 76.8238872,48.1014365 C77.2435696,48.1014365 77.558202,48.0675548 77.9776775,48.0675548 L78.4673241,48.0675548 C78.7471297,48.0675548 80.3717819,48.0338818 80.61645,48 L80.7215518,48 Z" id="memrise-logo"></path>
            </g>
        </g>
    </g>
</svg>