<?xml version="1.0" encoding="UTF-8"?>
<svg width="24px" height="24px" viewBox="0 0 24 24" version="1.1" xmlns="http://www.w3.org/2000/svg" xmlns:xlink="http://www.w3.org/1999/xlink">
    <!-- Generator: Sketch 58 (84663) - https://sketch.com -->
    <title>dribbble</title>
    <desc>Created with Sketch.</desc>
    <g id="Page-2" stroke="none" stroke-width="1" fill="none" fill-rule="evenodd">
        <g id="Desktop-HD-Copy-5" transform="translate(-677.000000, -3293.000000)" fill="#FFFFFF">
            <g id="Work-together" transform="translate(120.000000, 2903.000000)">
                <g id="Group-8" transform="translate(206.000000, 160.000000)">
                    <g id="Group-9" transform="translate(288.000000, 230.000000)">
                        <g id="Group-7">
                            <path d="M65.3954303,10.5348746 C68.3577158,10.7805886 71.194287,10.1863037 73.5428582,8.84344827 C72.3612982,7.08838863 70.9768799,5.47879818 69.4182871,4.04802593 C67.2483137,5.57074765 65.7949927,7.91422491 65.3954303,10.5348746 L65.3954303,10.5348746 Z M68.9360014,1.64345762 C65.2579867,3.79597223 62.998312,7.73843428 63.0000009,12.0000155 C63.0000009,18.6274356 68.3725729,24 75.0000009,24 C81.627429,24 87.0000009,18.6274356 87.0000009,12.0000155 C87.0000009,5.37259563 81.627429,1.55223083e-05 75.0000009,1.55223083e-05 C72.8683401,-0.00342040303 70.7745891,0.563620011 68.9360014,1.64231477 L68.9360014,1.64345762 Z M71.5485726,2.91545597 C72.9896021,4.31541249 74.2832292,5.85949132 75.4091438,7.52344998 C76.8343571,6.29379109 77.9402242,4.73695165 78.6320007,2.98631302 C77.4775726,2.52166392 76.2444284,2.28380473 75.0000009,2.28573076 C73.8211088,2.28442665 72.6518684,2.49821263 71.5497155,2.91659882 L71.5485726,2.91545597 Z M80.6468576,4.09488301 C79.7723077,6.19468385 78.3932865,8.04633063 76.6320008,9.48573315 C77.0297151,10.1817322 77.3988579,10.8937313 77.7382864,11.6194447 C79.8902863,10.7817315 82.2182861,10.3954462 84.6125716,10.5931603 C84.2301888,7.97820354 82.798554,5.63204214 80.6480005,4.09602586 L80.6468576,4.09488301 Z M84.673143,12.8925859 C82.5908575,12.6800147 80.5360005,12.9954429 78.6251435,13.7280133 C79.4150487,15.8165983 79.9384156,17.9964591 80.1828577,20.2160049 C82.7361227,18.6052465 84.3951605,15.8987543 84.6720002,12.8925859 L84.673143,12.8925859 Z M77.9805721,21.2468607 C77.8123987,19.0137016 77.331911,16.815156 76.5531437,14.7154406 C74.1325724,16.106296 72.0548583,18.1851504 70.6114299,20.6685758 C71.9714188,21.3581718 73.4751702,21.7164872 75.0000009,21.7142987 C76.0400009,21.7142987 77.0422865,21.5508603 77.981715,21.2480036 L77.9805721,21.2468607 Z M68.7062872,19.400006 C70.3794299,16.5725811 72.809144,14.1748699 75.6685723,12.5897291 C75.3823186,11.9777644 75.0735363,11.3765926 74.7428581,10.7874457 C71.9840012,12.3783008 68.6857157,13.0777285 65.3188589,12.820586 C65.5336277,15.3753523 66.7516047,17.7410356 68.7062872,19.400006 L68.7062872,19.400006 Z" id="dribbble"></path>
                        </g>
                    </g>
                </g>
            </g>
        </g>
    </g>
</svg>