<svg xmlns="http://www.w3.org/2000/svg" width="22" height="22" viewBox="0 0 22 22">
  <path fill="#FFF" d="M873,3294 C875.209139,3294 877,3295.79086 877,3298 L877,3312 C877,3314.20914 875.209139,3316 873,3316 L859,3316 C856.790861,3316 855,3314.20914 855,3312 L855,3298 C855,3295.79086 856.790861,3294 859,3294 L873,3294 Z M857.2,3300.756 L857.2,3312 C857.2,3312.99411 858.005887,3313.8 859,3313.8 L873,3313.8 C873.994113,3313.8 874.8,3312.99411 874.8,3312 L874.799,3300.757 L868.828427,3306.72792 C867.26633,3308.29002 864.73367,3308.29002 863.171573,3306.72792 L857.2,3300.756 Z M873,3296.2 L859,3296.2 C858.116932,3296.2 857.382387,3296.8359 857.229305,3297.67477 L864.727208,3305.17229 C865.430152,3305.87523 866.569848,3305.87523 867.272792,3305.17229 L874.080343,3298.36474 C874.32414,3298.12094 874.55864,3297.88644 874.783843,3297.66124 L874.770695,3297.67477 C874.617613,3296.8359 873.883068,3296.2 873,3296.2 Z" transform="translate(-855 -3294)"/>
</svg>
