<?xml version="1.0" encoding="UTF-8"?>
<svg width="23px" height="22px" viewBox="0 0 23 22" version="1.1" xmlns="http://www.w3.org/2000/svg" xmlns:xlink="http://www.w3.org/1999/xlink">
    <!-- Generator: Sketch 58 (84663) - https://sketch.com -->
    <title>github</title>
    <desc>Created with Sketch.</desc>
    <g id="Page-2" stroke="none" stroke-width="1" fill="none" fill-rule="evenodd">
        <g id="Desktop-HD-Copy-5" transform="translate(-614.000000, -3294.000000)" fill="#FFFFFF">
            <g id="Work-together" transform="translate(120.000000, 2903.000000)">
                <g id="Group-8" transform="translate(206.000000, 160.000000)">
                    <g id="Group-9" transform="translate(288.000000, 230.000000)">
                        <g id="Group-7">
                            <path d="M21.85,4.42530077 C21.86035,5.12813349 21.77295,6.00927961 21.6959,6.65190261 C21.6714777,6.8641994 21.6330596,7.07462584 21.5809,7.28178893 C22.5653,9.11702757 23,11.3251033 23,13.7369659 C23,16.5946119 21.63495,18.9485804 19.5086,20.5534011 C17.4018,22.1431693 14.559,23 11.5,23 C8.441,23 5.5982,22.1431693 3.4914,20.5534011 C1.36505,18.9485804 0,16.5946119 0,13.7369659 C0,11.3251033 0.43355,9.11702757 1.42025,7.28178893 C1.36810035,7.07462365 1.32968236,6.86419788 1.30525,6.65190261 C1.2259,6.00927961 1.1385,5.12813349 1.15,4.42530077 C1.1615,3.63446923 1.265,2.84363769 1.37885,2.05859555 C1.43175,1.69502146 1.51455,1.35344707 1.9067,1.13808153 C2.3069,0.918084468 2.7278,0.999136017 3.14295,1.11839758 C4.54365,1.51786593 5.85695,2.07943737 7.09205,2.75100735 C8.395,2.35848628 9.8647,2.15817317 11.5,2.15817317 C13.1353,2.15817317 14.605,2.35848628 15.9068,2.75216523 C17.1592341,2.06276885 18.4836822,1.51522461 19.8559,1.11955546 C20.27105,1.0002939 20.6931,0.918084468 21.09215,1.13808153 C21.48315,1.35344707 21.5671,1.69502146 21.62115,2.05859555 C21.73385,2.84363769 21.83735,3.63446923 21.84885,4.42530077 L21.85,4.42530077 Z M20.7,13.7369659 C20.7,11.7836235 20.2538,9.10544878 17.825,9.10544878 C16.7302,9.10544878 15.69405,9.39491859 14.65905,9.68438841 C13.6252,9.97385823 12.5925,10.263328 11.5,10.263328 C10.4075,10.263328 9.3748,9.97385823 8.34095,9.68438841 C7.30595,9.39491859 6.27095,9.10544878 5.175,9.10544878 C2.7531,9.10544878 2.3,11.7917287 2.3,13.7369659 C2.3,15.7794649 3.25105,17.4780738 4.8714,18.7007943 C6.509,19.9385672 8.8435,20.6842415 11.5,20.6842415 C14.1565,20.6842415 16.48985,19.9374093 18.1286,18.7007943 C19.74895,17.4769159 20.7,15.7794649 20.7,13.7369659 Z M9.2,14.3159055 C9.2,15.9137789 8.4272,17.2106037 7.475,17.2106037 C6.5228,17.2106037 5.75,15.9137789 5.75,14.3159055 C5.75,12.7180321 6.5228,11.4212073 7.475,11.4212073 C8.4272,11.4212073 9.2,12.7180321 9.2,14.3159055 Z M15.525,17.2106037 C16.4772,17.2106037 17.25,15.9137789 17.25,14.3159055 C17.25,12.7180321 16.4772,11.4212073 15.525,11.4212073 C14.5728,11.4212073 13.8,12.7180321 13.8,14.3159055 C13.8,15.9137789 14.5728,17.2106037 15.525,17.2106037 Z" id="github"></path>
                        </g>
                    </g>
                </g>
            </g>
        </g>
    </g>
</svg>