<?xml version="1.0" encoding="UTF-8"?>
<svg width="22px" height="22px" viewBox="0 0 22 22" version="1.1" xmlns="http://www.w3.org/2000/svg" xmlns:xlink="http://www.w3.org/1999/xlink">
    <!-- Generator: Sketch 58 (84663) - https://sketch.com -->
    <title>linkedin</title>
    <desc>Created with Sketch.</desc>
    <g id="Page-2" stroke="none" stroke-width="1" fill="none" fill-rule="evenodd">
        <g id="Desktop-HD-Copy-5" transform="translate(-805.000000, -3294.000000)" fill="#FFFFFF">
            <g id="Work-together" transform="translate(120.000000, 2903.000000)">
                <g id="Group-8" transform="translate(206.000000, 160.000000)">
                    <g id="Group-9" transform="translate(288.000000, 230.000000)">
                        <g id="Group-7">
                            <path d="M195.4,1 C192.969947,1 191,2.9699471 191,5.4 L191,18.6 C191,21.0300529 192.969947,23 195.4,23 L208.6,23 C211.030053,23 213,21.0300529 213,18.6 L213,5.4 C213,2.9699471 211.030053,1 208.6,1 L195.4,1 Z M193.2,5.4 C193.2,4.18497355 194.184974,3.2 195.4,3.2 L208.6,3.2 C209.815026,3.2 210.8,4.18497355 210.8,5.4 L210.8,18.6 C210.8,19.8150264 209.815026,20.8 208.6,20.8 L195.4,20.8 C194.184974,20.8 193.2,19.8150264 193.2,18.6 L193.2,5.4 Z M198.7,10.9 C198.7,10.2924868 198.207513,9.8 197.6,9.8 C196.992487,9.8 196.5,10.2924868 196.5,10.9 L196.5,17.5 C196.5,18.1075132 196.992487,18.6 197.6,18.6 C198.207513,18.6 198.7,18.1075132 198.7,17.5 L198.7,10.9 Z M199.25,7.05 C199.25,7.96126984 198.51127,8.7 197.6,8.7 C196.68873,8.7 195.95,7.96126984 195.95,7.05 C195.95,6.13873016 196.68873,5.4 197.6,5.4 C198.51127,5.4 199.25,6.13873016 199.25,7.05 Z M202,9.79999999 C202.374,9.79999999 202.704,9.987 202.902,10.2708 C203.468944,9.96181466 204.104324,9.79999999 204.75,9.79999999 C207.126,9.79999999 208.6,11.9186 208.6,13.7281 L208.6,17.5 C208.6,18.1075132 208.107513,18.6 207.5,18.6 C206.892487,18.6 206.4,18.1075132 206.4,17.5 L206.4,13.727 C206.4,12.8822 205.674,11.9989 204.75,11.9989 C204.1736,11.9989 203.5367,12.3124 203.1,13.0582 L203.1,17.5 C203.1,18.1075132 202.607513,18.6 202,18.6 C201.392487,18.6 200.9,18.1075132 200.9,17.5 L200.9,10.9 C200.9,10.2924868 201.392487,9.79999999 202,9.79999999 Z" id="linkedin"></path>
                        </g>
                    </g>
                </g>
            </g>
        </g>
    </g>
</svg>