<?xml version="1.0" encoding="UTF-8"?>
<svg width="24px" height="20px" viewBox="0 0 24 20" version="1.1" xmlns="http://www.w3.org/2000/svg" xmlns:xlink="http://www.w3.org/1999/xlink">
    <!-- Generator: Sketch 58 (84663) - https://sketch.com -->
    <title>twitter</title>
    <desc>Created with Sketch.</desc>
    <g id="Page-2" stroke="none" stroke-width="1" fill="none" fill-rule="evenodd">
        <g id="Desktop-HD-Copy-5" transform="translate(-741.000000, -3295.000000)" fill="#FFFFFF">
            <g id="Work-together" transform="translate(120.000000, 2903.000000)">
                <g id="Group-8" transform="translate(206.000000, 160.000000)">
                    <g id="Group-9" transform="translate(288.000000, 230.000000)">
                        <g id="Group-7">
                            <path d="M142.258975,4.28594214 C141.199118,4.28550202 140.194966,4.75930938 139.5231,5.57685995 C138.851234,6.39441053 138.582529,7.46946049 138.790997,8.50590021 C138.862903,8.86565377 138.75727,9.23796638 138.507023,9.506795 C138.256775,9.77562362 137.892342,9.90827982 137.527311,9.86341708 C135.063788,9.56158614 132.741484,8.55155492 130.843405,6.95641125 C130.878921,7.64431121 131.118369,8.37563343 131.637363,9.14123639 L132.41528,10.2884981 L131.137845,10.8312763 L130.891524,10.9364039 C131.074833,11.1455163 131.294804,11.3591996 131.541125,11.5705974 C131.870412,11.8517062 132.218764,12.1098061 132.583695,12.3430565 L132.596298,12.3510553 L132.597444,12.3510553 L134.370958,13.4240421 L132.514954,14.3496218 C132.4233,14.3953295 132.331645,14.4364663 132.239991,14.4730325 C132.639077,14.8037834 133.078729,15.0825525 133.548359,15.3026261 L135.140856,16.0533741 L133.807283,17.2006358 C133.079775,17.8268305 132.347685,18.2941911 131.397915,18.5410123 C132.854576,19.3148924 134.480307,19.7180073 136.130725,19.7145779 C141.63687,19.7145779 146.070657,15.3323361 146.070657,9.96283119 L146.070657,9.36863189 L146.557571,9.02696729 C147.318304,8.4944733 147.855628,7.77457798 148.240577,6.95069779 L145.765906,6.95069779 L145.45428,6.29936394 C144.86858,5.06945067 143.625279,4.28574272 142.26012,4.28594214 L142.258975,4.28594214 Z M129.335689,12.6275865 C129.116931,12.8774609 129.017841,13.2098178 129.064162,13.5383112 C129.193624,14.4536067 129.742405,15.2420635 130.349617,15.8442616 C130.514595,16.0076664 130.69103,16.1642151 130.87663,16.3139076 L130.790704,16.3367614 C130.239631,16.4738843 129.496084,16.5024516 128.257602,16.3824691 C127.778503,16.3355763 127.321116,16.592406 127.112824,17.0252788 C126.904532,17.4581516 126.98977,17.9747233 127.326163,18.3181876 C129.642532,20.6796425 132.817299,22.0073886 136.129579,21.9999691 C142.674857,21.9999691 148.04352,16.9309607 148.347126,10.5341767 C149.825055,9.29664236 150.564019,7.6203147 150.962716,6.09710764 C151.052551,5.75447991 150.978027,5.38967164 150.760948,5.10941382 C150.54387,4.82915601 150.208773,4.66512682 149.853697,4.66531585 L147.157908,4.66531585 C145.805879,2.57147585 143.266531,1.56959435 140.84423,2.17429981 C138.42193,2.77900528 136.655189,4.85586298 136.451516,7.33807003 C134.339632,6.78974876 132.450031,5.60210008 131.042754,3.93856439 C130.789453,3.63985492 130.400543,3.49115534 130.011953,3.54443832 C129.623363,3.5977213 129.289113,3.84557967 129.126029,4.20138332 C128.431746,5.71202078 128.298847,7.45348182 129.073328,9.22465283 L128.805238,9.33892192 C128.274454,9.56450284 127.994668,10.1485614 128.1522,10.7021523 C128.365296,11.4471868 128.844191,12.1053768 129.334543,12.6275865 L129.335689,12.6275865 Z" id="twitter"></path>
                        </g>
                    </g>
                </g>
            </g>
        </g>
    </g>
</svg>